<mxfile host="app.diagrams.net" modified="2021-08-22T00:08:18.579Z" agent="5.0 (Windows NT 10.0; Win64; x64) AppleWebKit/537.36 (KHTML, like Gecko) Chrome/92.0.4515.159 Safari/537.36" etag="3gwlGORj7o1XoqYY3Msf" version="14.9.8" type="github" pages="2">
  <diagram id="piDafpqhtRUU5qUU-vj8" name="inicio">
    <mxGraphModel dx="1240" dy="643" grid="1" gridSize="10" guides="1" tooltips="1" connect="1" arrows="1" fold="1" page="1" pageScale="1" pageWidth="827" pageHeight="1169" math="0" shadow="0">
      <root>
        <mxCell id="0" />
        <mxCell id="1" parent="0" />
        <mxCell id="8962rQQDY3VNNf6We3Pp-1" value="" style="strokeWidth=1;shadow=0;dashed=0;align=center;html=1;shape=mxgraph.mockup.containers.browserWindow;rSize=0;strokeColor2=#008cff;strokeColor3=#c4c4c4;mainText=,;recursiveResize=0;" parent="1" vertex="1">
          <mxGeometry x="10" y="80" width="1180" height="1490" as="geometry" />
        </mxCell>
        <mxCell id="8962rQQDY3VNNf6We3Pp-2" value="Page 1" style="strokeWidth=1;shadow=0;dashed=0;align=center;html=1;shape=mxgraph.mockup.containers.anchor;fontSize=17;fontColor=#666666;align=left;" parent="8962rQQDY3VNNf6We3Pp-1" vertex="1">
          <mxGeometry x="60" y="12" width="110" height="26" as="geometry" />
        </mxCell>
        <mxCell id="8962rQQDY3VNNf6We3Pp-3" value="https://www.offlinegamestore.pe" style="strokeWidth=1;shadow=0;dashed=0;align=center;html=1;shape=mxgraph.mockup.containers.anchor;rSize=0;fontSize=17;fontColor=#666666;align=left;" parent="8962rQQDY3VNNf6We3Pp-1" vertex="1">
          <mxGeometry x="130" y="60" width="250" height="26" as="geometry" />
        </mxCell>
        <mxCell id="8962rQQDY3VNNf6We3Pp-6" value="CategorÃ­as" style="rounded=1;fillColor=#F1F2F4;strokeColor=none;html=1;fontColor=#596780;align=left;fontSize=10;spacingLeft=10" parent="8962rQQDY3VNNf6We3Pp-1" vertex="1">
          <mxGeometry x="900" y="127" width="90" height="33" as="geometry" />
        </mxCell>
        <mxCell id="8962rQQDY3VNNf6We3Pp-7" value="" style="shape=triangle;direction=south;fillColor=#596780;strokeColor=none;html=1" parent="8962rQQDY3VNNf6We3Pp-6" vertex="1">
          <mxGeometry x="1" y="0.5" width="12" height="6" relative="1" as="geometry">
            <mxPoint x="-20" y="-3" as="offset" />
          </mxGeometry>
        </mxCell>
        <mxCell id="8962rQQDY3VNNf6We3Pp-8" value="Accesorios" style="rounded=1;fillColor=#F1F2F4;strokeColor=none;html=1;fontColor=#596780;align=left;fontSize=10;spacingLeft=10" parent="8962rQQDY3VNNf6We3Pp-1" vertex="1">
          <mxGeometry x="790" y="127" width="90" height="33" as="geometry" />
        </mxCell>
        <mxCell id="8962rQQDY3VNNf6We3Pp-9" value="" style="shape=triangle;direction=south;fillColor=#596780;strokeColor=none;html=1" parent="8962rQQDY3VNNf6We3Pp-8" vertex="1">
          <mxGeometry x="1" y="0.5" width="12" height="6" relative="1" as="geometry">
            <mxPoint x="-20" y="-3" as="offset" />
          </mxGeometry>
        </mxCell>
        <mxCell id="8962rQQDY3VNNf6We3Pp-10" value="Productos" style="rounded=1;fillColor=#F1F2F4;strokeColor=none;html=1;fontColor=#596780;align=left;fontSize=10;spacingLeft=10" parent="8962rQQDY3VNNf6We3Pp-1" vertex="1">
          <mxGeometry x="680" y="127" width="90" height="33" as="geometry" />
        </mxCell>
        <mxCell id="8962rQQDY3VNNf6We3Pp-11" value="" style="shape=triangle;direction=south;fillColor=#596780;strokeColor=none;html=1" parent="8962rQQDY3VNNf6We3Pp-10" vertex="1">
          <mxGeometry x="1" y="0.5" width="12" height="6" relative="1" as="geometry">
            <mxPoint x="-20" y="-3" as="offset" />
          </mxGeometry>
        </mxCell>
        <mxCell id="8962rQQDY3VNNf6We3Pp-12" value="Inicio" style="rounded=1;fillColor=#F1F2F4;strokeColor=none;html=1;fontColor=#596780;align=left;fontSize=10;spacingLeft=10" parent="8962rQQDY3VNNf6We3Pp-1" vertex="1">
          <mxGeometry x="570" y="127" width="90" height="33" as="geometry" />
        </mxCell>
        <mxCell id="8962rQQDY3VNNf6We3Pp-14" value="Try now" style="rounded=1;align=center;strokeColor=none;html=1;fontColor=#ffffff;fontSize=12;fillColor=#008CFF;" parent="8962rQQDY3VNNf6We3Pp-1" vertex="1">
          <mxGeometry x="1045" y="127" width="86" height="33" as="geometry" />
        </mxCell>
        <mxCell id="8962rQQDY3VNNf6We3Pp-35" value="" style="verticalLabelPosition=bottom;shadow=0;dashed=0;align=center;html=1;verticalAlign=top;strokeWidth=1;shape=mxgraph.mockup.markup.line;strokeColor=#999999;fillColor=#008CFF;fontSize=13;fontColor=#0066CC;" parent="8962rQQDY3VNNf6We3Pp-1" vertex="1">
          <mxGeometry y="1180" width="1150" height="20" as="geometry" />
        </mxCell>
        <mxCell id="8962rQQDY3VNNf6We3Pp-30" value="" style="shape=rect;fillColor=#ffffff;strokeColor=#eeeeee;shadow=0;fontSize=13;fontColor=#0066CC;" parent="8962rQQDY3VNNf6We3Pp-1" vertex="1">
          <mxGeometry x="425" y="1420" width="300" height="40" as="geometry" />
        </mxCell>
        <mxCell id="8962rQQDY3VNNf6We3Pp-31" value="BUTTON" style="shape=rect;strokeColor=none;fillColor=none;fontSize=12;fontColor=#2196F3;dashed=0;" parent="8962rQQDY3VNNf6We3Pp-30" vertex="1">
          <mxGeometry width="75" height="40" as="geometry" />
        </mxCell>
        <mxCell id="8962rQQDY3VNNf6We3Pp-32" value="BUTTON" style="shape=rect;strokeColor=none;fillColor=none;fontSize=12;fontColor=#2196F3;dashed=0;" parent="8962rQQDY3VNNf6We3Pp-30" vertex="1">
          <mxGeometry x="75" width="75" height="40" as="geometry" />
        </mxCell>
        <mxCell id="8962rQQDY3VNNf6We3Pp-33" value="BUTTON" style="shape=rect;strokeColor=none;fillColor=none;fontSize=12;fontColor=#2196F3;dashed=0;" parent="8962rQQDY3VNNf6We3Pp-30" vertex="1">
          <mxGeometry x="150" width="75" height="40" as="geometry" />
        </mxCell>
        <mxCell id="8962rQQDY3VNNf6We3Pp-34" value="BUTTON" style="shape=rect;strokeColor=none;fillColor=none;fontSize=12;fontColor=#2196F3;dashed=0;" parent="8962rQQDY3VNNf6We3Pp-30" vertex="1">
          <mxGeometry x="225" width="75" height="40" as="geometry" />
        </mxCell>
        <mxCell id="8962rQQDY3VNNf6We3Pp-36" value="" style="shape=image;html=1;verticalAlign=top;verticalLabelPosition=bottom;labelBackgroundColor=#ffffff;imageAspect=0;aspect=fixed;image=https://cdn3.iconfinder.com/data/icons/peelicons-vol-1/50/LinkedIn-128.png;fillColor=#008CFF;fontSize=13;fontColor=#0066CC;" parent="8962rQQDY3VNNf6We3Pp-1" vertex="1">
          <mxGeometry x="870" y="1420" width="30" height="30" as="geometry" />
        </mxCell>
        <mxCell id="8962rQQDY3VNNf6We3Pp-37" value="" style="shape=image;html=1;verticalAlign=top;verticalLabelPosition=bottom;labelBackgroundColor=#ffffff;imageAspect=0;aspect=fixed;image=https://cdn3.iconfinder.com/data/icons/peelicons-vol-1/50/Facebook-128.png;fillColor=#008CFF;fontSize=13;fontColor=#0066CC;" parent="8962rQQDY3VNNf6We3Pp-1" vertex="1">
          <mxGeometry x="920" y="1420" width="30" height="30" as="geometry" />
        </mxCell>
        <mxCell id="8962rQQDY3VNNf6We3Pp-38" value="" style="shape=image;html=1;verticalAlign=top;verticalLabelPosition=bottom;labelBackgroundColor=#ffffff;imageAspect=0;aspect=fixed;image=https://cdn3.iconfinder.com/data/icons/peelicons-vol-1/50/Twitter-128.png;fillColor=#008CFF;fontSize=13;fontColor=#0066CC;" parent="8962rQQDY3VNNf6We3Pp-1" vertex="1">
          <mxGeometry x="970" y="1420" width="30" height="30" as="geometry" />
        </mxCell>
        <mxCell id="fRIJoV2RQzX1SSWJg5ER-2" value="First slide" style="html=1;shadow=0;dashed=0;strokeColor=none;strokeWidth=1;fillColor=#777777;fontColor=#555555;whiteSpace=wrap;align=center;verticalAlign=middle;fontStyle=0;fontSize=40;" vertex="1" parent="8962rQQDY3VNNf6We3Pp-1">
          <mxGeometry x="-10" y="180" width="1160" height="410" as="geometry" />
        </mxCell>
        <mxCell id="fRIJoV2RQzX1SSWJg5ER-3" value="" style="html=1;verticalLabelPosition=bottom;labelBackgroundColor=#ffffff;verticalAlign=top;shadow=0;dashed=0;strokeWidth=4;shape=mxgraph.ios7.misc.more;strokeColor=#a0a0a0;" vertex="1" parent="fRIJoV2RQzX1SSWJg5ER-2">
          <mxGeometry x="1" y="0.5" width="7" height="14" relative="1" as="geometry">
            <mxPoint x="-50" y="-7" as="offset" />
          </mxGeometry>
        </mxCell>
        <mxCell id="fRIJoV2RQzX1SSWJg5ER-4" value="" style="flipH=1;html=1;verticalLabelPosition=bottom;labelBackgroundColor=#ffffff;verticalAlign=top;shadow=0;dashed=0;strokeWidth=4;shape=mxgraph.ios7.misc.more;strokeColor=#a0a0a0;" vertex="1" parent="fRIJoV2RQzX1SSWJg5ER-2">
          <mxGeometry y="0.5" width="7" height="14" relative="1" as="geometry">
            <mxPoint x="43" y="-7" as="offset" />
          </mxGeometry>
        </mxCell>
        <mxCell id="fRIJoV2RQzX1SSWJg5ER-5" value="" style="html=1;shadow=0;strokeColor=none;fillColor=#ffffff;" vertex="1" parent="fRIJoV2RQzX1SSWJg5ER-2">
          <mxGeometry x="0.5" y="1" width="30" height="4" relative="1" as="geometry">
            <mxPoint x="-50" y="-20" as="offset" />
          </mxGeometry>
        </mxCell>
        <mxCell id="fRIJoV2RQzX1SSWJg5ER-6" value="" style="html=1;shadow=0;strokeColor=none;fillColor=#BBBBBB;" vertex="1" parent="fRIJoV2RQzX1SSWJg5ER-2">
          <mxGeometry x="0.5" y="1" width="30" height="4" relative="1" as="geometry">
            <mxPoint x="-15" y="-20" as="offset" />
          </mxGeometry>
        </mxCell>
        <mxCell id="fRIJoV2RQzX1SSWJg5ER-7" value="" style="html=1;shadow=0;strokeColor=none;fillColor=#BBBBBB;" vertex="1" parent="fRIJoV2RQzX1SSWJg5ER-2">
          <mxGeometry x="0.5" y="1" width="30" height="4" relative="1" as="geometry">
            <mxPoint x="20" y="-20" as="offset" />
          </mxGeometry>
        </mxCell>
        <mxCell id="fRIJoV2RQzX1SSWJg5ER-8" value="&lt;font style=&quot;font-size: 16px&quot;&gt;&lt;b&gt;First slide label&lt;/b&gt;&lt;/font&gt;&lt;br style=&quot;font-size: 14px&quot;&gt;&lt;br style=&quot;font-size: 14px&quot;&gt;Nulla vitae elit libero, a pharetra augue mollis interdum." style="html=1;shadow=0;strokeColor=none;fillColor=none;resizeWidth=1;fontColor=#FFFFFF;fontSize=14;" vertex="1" parent="fRIJoV2RQzX1SSWJg5ER-2">
          <mxGeometry y="1" width="1160" height="60" relative="1" as="geometry">
            <mxPoint y="-90" as="offset" />
          </mxGeometry>
        </mxCell>
        <mxCell id="fRIJoV2RQzX1SSWJg5ER-9" value="&lt;b&gt;&lt;font style=&quot;font-size: 20px&quot;&gt;Card title&lt;/font&gt;&lt;/b&gt;&lt;br style=&quot;font-size: 14px&quot;&gt;&lt;br style=&quot;font-size: 14px&quot;&gt;Some quick example text to build on the card title and make up the bulk of the card&#39;s content." style="html=1;shadow=0;dashed=0;shape=mxgraph.bootstrap.rrect;rSize=5;strokeColor=#DFDFDF;html=1;whiteSpace=wrap;fillColor=#ffffff;fontColor=#000000;verticalAlign=bottom;align=left;spacing=20;spacingBottom=50;fontSize=14;" vertex="1" parent="8962rQQDY3VNNf6We3Pp-1">
          <mxGeometry x="45" y="710" width="250" height="350" as="geometry" />
        </mxCell>
        <mxCell id="fRIJoV2RQzX1SSWJg5ER-10" value="Image cap" style="html=1;shadow=0;dashed=0;shape=mxgraph.bootstrap.topButton;rSize=5;perimeter=none;whiteSpace=wrap;fillColor=#868E96;strokeColor=#DFDFDF;fontColor=#DEE2E6;resizeWidth=1;fontSize=18;" vertex="1" parent="fRIJoV2RQzX1SSWJg5ER-9">
          <mxGeometry width="250" height="180" relative="1" as="geometry" />
        </mxCell>
        <mxCell id="fRIJoV2RQzX1SSWJg5ER-12" value="&lt;b&gt;&lt;font style=&quot;font-size: 20px&quot;&gt;Card title&lt;/font&gt;&lt;/b&gt;&lt;br style=&quot;font-size: 14px&quot;&gt;&lt;br style=&quot;font-size: 14px&quot;&gt;Some quick example text to build on the card title and make up the bulk of the card&#39;s content." style="html=1;shadow=0;dashed=0;shape=mxgraph.bootstrap.rrect;rSize=5;strokeColor=#DFDFDF;html=1;whiteSpace=wrap;fillColor=#ffffff;fontColor=#000000;verticalAlign=bottom;align=left;spacing=20;spacingBottom=50;fontSize=14;" vertex="1" parent="8962rQQDY3VNNf6We3Pp-1">
          <mxGeometry x="315" y="710" width="250" height="350" as="geometry" />
        </mxCell>
        <mxCell id="fRIJoV2RQzX1SSWJg5ER-13" value="Image cap" style="html=1;shadow=0;dashed=0;shape=mxgraph.bootstrap.topButton;rSize=5;perimeter=none;whiteSpace=wrap;fillColor=#868E96;strokeColor=#DFDFDF;fontColor=#DEE2E6;resizeWidth=1;fontSize=18;" vertex="1" parent="fRIJoV2RQzX1SSWJg5ER-12">
          <mxGeometry width="250" height="180" relative="1" as="geometry" />
        </mxCell>
        <mxCell id="fRIJoV2RQzX1SSWJg5ER-23" value="&lt;b&gt;&lt;font style=&quot;font-size: 20px&quot;&gt;Card title&lt;/font&gt;&lt;/b&gt;&lt;br style=&quot;font-size: 14px&quot;&gt;&lt;br style=&quot;font-size: 14px&quot;&gt;Some quick example text to build on the card title and make up the bulk of the card&#39;s content." style="html=1;shadow=0;dashed=0;shape=mxgraph.bootstrap.rrect;rSize=5;strokeColor=#DFDFDF;html=1;whiteSpace=wrap;fillColor=#ffffff;fontColor=#000000;verticalAlign=bottom;align=left;spacing=20;spacingBottom=50;fontSize=14;" vertex="1" parent="8962rQQDY3VNNf6We3Pp-1">
          <mxGeometry x="585" y="710" width="250" height="350" as="geometry" />
        </mxCell>
        <mxCell id="fRIJoV2RQzX1SSWJg5ER-24" value="Image cap" style="html=1;shadow=0;dashed=0;shape=mxgraph.bootstrap.topButton;rSize=5;perimeter=none;whiteSpace=wrap;fillColor=#868E96;strokeColor=#DFDFDF;fontColor=#DEE2E6;resizeWidth=1;fontSize=18;" vertex="1" parent="fRIJoV2RQzX1SSWJg5ER-23">
          <mxGeometry width="250" height="180" relative="1" as="geometry" />
        </mxCell>
        <mxCell id="fRIJoV2RQzX1SSWJg5ER-26" value="&lt;b&gt;&lt;font style=&quot;font-size: 20px&quot;&gt;Card title&lt;/font&gt;&lt;/b&gt;&lt;br style=&quot;font-size: 14px&quot;&gt;&lt;br style=&quot;font-size: 14px&quot;&gt;Some quick example text to build on the card title and make up the bulk of the card&#39;s content." style="html=1;shadow=0;dashed=0;shape=mxgraph.bootstrap.rrect;rSize=5;strokeColor=#DFDFDF;html=1;whiteSpace=wrap;fillColor=#ffffff;fontColor=#000000;verticalAlign=bottom;align=left;spacing=20;spacingBottom=50;fontSize=14;" vertex="1" parent="8962rQQDY3VNNf6We3Pp-1">
          <mxGeometry x="855" y="710" width="250" height="350" as="geometry" />
        </mxCell>
        <mxCell id="fRIJoV2RQzX1SSWJg5ER-27" value="Image cap" style="html=1;shadow=0;dashed=0;shape=mxgraph.bootstrap.topButton;rSize=5;perimeter=none;whiteSpace=wrap;fillColor=#868E96;strokeColor=#DFDFDF;fontColor=#DEE2E6;resizeWidth=1;fontSize=18;" vertex="1" parent="fRIJoV2RQzX1SSWJg5ER-26">
          <mxGeometry width="250" height="180" relative="1" as="geometry" />
        </mxCell>
        <mxCell id="fRIJoV2RQzX1SSWJg5ER-29" value="Productos 2021" style="text;strokeColor=none;fillColor=none;html=1;fontSize=24;fontStyle=1;verticalAlign=middle;align=center;" vertex="1" parent="8962rQQDY3VNNf6We3Pp-1">
          <mxGeometry x="510" y="615" width="100" height="40" as="geometry" />
        </mxCell>
        <mxCell id="NQu_GrQVLQAWwjc_rgJT-43" value="" style="shape=image;verticalLabelPosition=bottom;labelBackgroundColor=#ffffff;verticalAlign=top;aspect=fixed;imageAspect=0;image=data:image/png,iVBORw0KGgoAAAANSUhEUgAAATkAAAE6CAYAAABtdSVfAAAACXBIWXMAABcRAAAXEQHKJvM/AAAgAElEQVR4nO194W8cyXVnzcHfKeWbNrZFieSQii8Q17Lj7Fm3ojZaw7B9WRqONjnfwaIOB62R3HkpHAQJpCgNRVFHQQiWusMFZ12SpXJGkvPCWXJhGAessKYO+nLIapfM+ixySGol7yb6Zkn/gPpQPa97qnuqqqu6q7qru98PoMQp9vTUdHX/6v3qvXqv4XkeQSAQiKrin+HIIhCIKgNJDoFAVBpIcggEotJAkkMgEJUGkhwCgag0kOQQCESlgSSHQCAqDSQ5BAJRaXwGh7dceNScGmM6TH9/AD8UD/a0rzwo+3d0Hf+3eX4XIWQUwuhHCSG7PI88IF5nHF7Yvrxa92vkEnDHg8N41JyiD9M4kBn92avQ26eEkFX4WUbSy46/b57v92AcvM449NGTBk9O+Ah5wX8N+utDZhxWv7o9h+NQEJDkHMSj5tQEkNsrBnq37hGyRAhZeq595UnlLpYl/H3HWqNjMOkRcjD4lBifdX73ogQX/zu8XieELNKJ5/D2HI5DjkCScwRgtU3CT5/JXnVGuEEtvGWPkNZvtufRqhDg/Y7VRseATjR9ETKL/U9iBEe6VlwEsddP6aTjEbL4Ilp3uQBJrmAAubUIIa/b6AkQXOS1R8hN8sxrfXYbpWyAu0Pnd3kNsugRcoJt5xJb8D9fpkbAe8203aRjj2RnF0hyBcGm5RagO7JdCRW2PfN/m6UP9ue26itjKbn5krThy9LIOOhYcRKZKj9H522z1LIb20IZawMYQlIc6PrMRVsE1wXn4esQHH3A6Oc/+GTIXwOsHe4OnadrbmtwHVITHO89vNeStovUM7s6OFPLcbANtOQKxKPmFHUInLDRA4FMDQmOdK2IALc90pj8/Nb8mntXyizuDp3vJx1nzBEC10FEUJZkKun53PBcdBzIxEsoYY0BSa5ggCf1TZO9UJCpcYJj5dZ1uk60d2u+ctLpg0F/3W0SLGgfMoIjIrIzJ1M7bV7PcU9Jg7Re2ppb1PuGCB6Q5BzAo+YUffDeMNUT1oqLPGAJBMccTz2Ak/1b80tOXzgNfDDoS9NFr9GNNYwQDRH/ntGbKrfiPM5x3eFYoVbd7+FaXSYgyaXEo+ZUP8RRjUPUO7umQ2Oi1iAYd1nlE0xJ1xQylWuNwO9UOrX2bc2XNoL/g8Hzo7D+eaTne7slU7ttjUgbDf0ZP7Y1h7soUgJJThNAbi0NQqKR76097StSqwi8rWuKuxq4yChTmbae3/1Qh31b5Ymv+3DQ95qGISE6BEdEZGdfprLzU9yyO32sjfI1DZDkNPCoOTUOC9ZpPKK36Yy8R7LrAPal/jxt/wzIVCHZgYSlpLE44PB63YednQqT5Fk0JIT97iWQqaK2m3QZ4WttlK86QJJThCEHwUMgOqEHM61sNSxTZQ/sU/LMl3+LAzvukN0aE+9GnsV2KpRTpva0wf/rpEHGv7aJ3ldVIMkpwLAHlK7XjYksOpDDH+uc0KJMjfzeIc3wd3+bGJWxgzvFydj1wfP94DGd8Bqkj+lf5//yy1ReG732Y1/bnKt8uI8JIMklAEhnzXDQ7sqe9pVx0R8fNadWgxguFViWqYxVKDzmNuzHXG7mYN2tD4ab58e9RieJQfgdn/HJhcSJhoh/d1CmitpOfn1zrjIecFtAkkuALuFo4Oie9hWux0zHcsxRppK4lcQ9hpAVSASwOmzQwvuHAd9iG2Ozs/QQmITgCCm9TOW3eeTk19tIdDIgyUnwqDlFww8+tHT623vaV8Z4fwBP6+OkExQkU3v6IHnwH3odK3gN/n9yYCc5HOUX+6fHOv1ujEF4Dk1QuZdHWuH/9ZCp0bbuB13/entukiC4QJKT4FFzatFWdhDAPlFSy0fNKUoKB3l/C+CATJWSHJ8AGqyVST22dO9oJM4QCC76GTKCI7WTqZEOwPW5+Y3NOdz7ygFu0JeDa2kZhHBdjklpzkVcphKOTJW/V96WYKElHiMjT6a9D5YCuKEepPsAR9tir5NkakIfetu8+DEGZKrsOIVr3dPm9bSd+NnwDMpWDpDk5JBaUgbQLzmF0HOm+oBFj5HLVOH508lUblvMiuP2swNuY++5G1Erk3e+JJkqbIvJVGk/RH3rORcD3mk5BM9ti5Nw9xgkOg4qUcgGgnSD9ZsAQY2DVG52WI+zjQyfIU2hFAHvQU0iu7hM1QH/fFGCE1tomjJVRtYJFp2KTOWdX4kkRYREDMhUtq2XBE/8dHiGfAula4hSkxzsEFgSbIWiMujio+YU3WkwkaKgyy5D3TSKisjU3jaUqeJ+cV4kHEeJbvVbGF7io7RyFcIsfq6w15OS3VoKy8y5iHKUqcx7UaYmkfqbPx3GJJykrCQHFpzODgS6sL0Kgb1KyKmUXwopjTJV9nnxY3jHVlSm8o57853hC7adZ86jrJZcGjO8L8X71lN8jg5kJBexPFGmMkCZmvheBsvvDF/IY33ZWZSO5ECmpk1HdETHmgPnhU3Izh/emChTmfeiTFUida/7XfqA6JxcY84DZbTksprfsti0OGzm71qRBAL39xI5ylTZ58WP4R1bI5kavwf2evYnbGdRRpLTscR4UDbdgYRuZvw8EWQEGhIxylQGKFMT3yvBweXhC7X0ttYxGFiXJCchtY1JXBdtzgf4MU4oU5n3okzVlamxNkrq3om3m/XzuNaR5LS8ppD3zeSNsQ7p07kAzzGz0wJlquzz4sfwjq2xTOX19823mzO1ckSUkeSyhnZoh21AMZqTGT+XJCXMBPgEiDKVAcrUxPfKAFYce8Ty3zVnauOIKCPJZV1AVaqeFQcUojkKKczTYCWJ4GB72hGUqcx7UaaakKnx9r0pw7BKiVKmWnrUnHqQMoxEmMNN47N3wTrdpGK24NtQrUtKzmy1LtaKi1hO5UmhZE6mYgql5L5IZKqA5ILjT3+nfanyFcDKSnJpqlpR58GoqZ0MQEpBYoB++NkLpEZ0EwQ8ak5RC/OVuEztEhJDIBpWnPSBTWHFiQmlS3LhsRxCiiT4lMjUGmf6jbZx1iQzWnHssX6tiO+0L1W6VkRpk2ZqFpd5ClLRycEMKnR1R4IhgqDJjUy/AhKxYMXVO9NvZitORHAkdjyt/vUH7UuVdkSU1ruqsUZ2Gyw4pwmu24LeVNnnxY/hHZtEcKLzC68Xr413Lje9qbG/91y8g28NXxB6+6uASqQ/N5VPDnYaBHF0D2xu0ge5uxQWZfFbUaaiTO39zvIxTSVTu23dpuePb1ZTtta+xgPjSODtiX0IRLSYEPah+5mRPHjdEUCZijI1N5ka+17e+qubc5WUrbUmOSCbZQUvaWLle8XP64c4uEiFfNaKixKSnOB6joe+ep1YwtVIpSuC3tSg35pWHB37B16DrHr0enr+Nd0bOa483tRoW6Q//ntmX92cq5x0rS3JpfDQpnZegJyeCKQpC5bgCHtT68tUGofX6t+a7+nfztB0h1yfdcg1K8GFfai2TPWv54vbvVXqVwdn6MQx6QWTVbllakBwwXH7/nDzknMJY7OgliQHEvVBiqr4D8GJwZWuzJreKKRPH5MVpu5e+cwy9WT/1nxicOfOwPS415HJ3epYEoIjggetBjL15IvbyanD3xucGSeN7vXUtuK8WFsxMpX5mz8J3P6jzUuVSrRZ12pdrRQER0CmyIr4BtbhG7S+hFrl/czeVCWCoxjYmV/WSVXFm/5q4E1VIjiKl7bnwuuZSqaybfl5UwXXM7Ryj/zt8IVKbeKvK8llGUTZe5WlbFymhm16e1OvqxJcgMEdX87OEsmDRAQkIulHt433sEpkqg939qZeVyW4AC9tza15hMwqEmjPi8TjFGBIprJY/JsKJdmsHclBQZs0VlyAvSB3e6C6XidZB+q2JctUWn0+1SLx4M58y+u8X9qveFvF96Y+lWWHScCi/34OwRe0N1XhfNL39GW4Fs6hjpaciRnKgKs9s0xd7t+azxLWIrRYaipTl1/cnkt1PX9va+4JrM2F5y+hTI334fW/rkhtCKygnzMMyVSSrtJX5Fyrsdc9n1EjmUoMZLdZFfaL88JRmRrvQyU276cmORqCAT91rASUysVuSKYGv2eNTg+tlprL1ABZwyai17OcMjXeduSvK1DSUJvkKKlBqqOfw8+Hj5pTa6J1KtcAKY+ypDN/mFCAJgGZZao11FSmGkNFZGq8rfR557RIDohslbP96WAO5ftMIlXiTIBs0IWznkGZKmxLA5SpITIpEo9TO6TEMpXF3h+VPKRE15KbkHgmD0JkfxnQSmnNPU1Yp+CSnGGZagwoUyOfm1WWjVVIpkY+jz4vPypxSIkuySXdCKVYnwO5KQvqFWFcstthl7ymqzmZmg/Z1U6mvrI6NJOq3OW7zZl+f4tXtWQq25YUBO80dEkuaXG2NHveIB/dSUWLjh5zNCGF+TjPykWZysD9gjRp158i1n1FZGock/9zpJzWnC7JydaynpZsXS4gulEoIM0jO9p2ne5HlREcWHE9wZOuylQeaixT2QOOrA7OaBHdu80ZulH/lYrKVLbvfV5JrTntDfq9mWxDnATSKC0gM0mAJxr1GehM/nq8nbXiIpaTmYI0R/dtzaeeVDYHpukaUpiFpft5WJDGI+QmfaBfkgQH32rO7PIIWZTKVMaKKziFUlqZ2mnrjg+d9Pu/t3HJWG7FPPAZ3c/Y074yAUVXJmD3AJWoS0nVqMqANN8Bak1ICS7SZrBuahagTBVbj5BCafy9oRk6eS29tDUXLsPcavrrduNg1eyNvzf+ogIylT2+D9bmSrXlK9dUS4GlZJMQ4TNasQwgNDfYpOl05hAIvRpfi+te0a4VF7aZy/R7dH8GS25jYNrPmCKTqUasuOpk+r1NGt17yhMfF7cKXUmhpNiHWFvv+Dz1SKP/xMZsaaw5bUtOF7xsuI+aUwTWwSYNpxUXVfCiySr9HRqmCtpAuMySOKTGrjfV9NSEBWmYNh5xqRJc7Fwl9abKzlc6a87q3lWwdNYEa3i07YGpbWGw+C+LYeszUTWcfg6swb1dhDeVdzOmBcrUhOPSEGg1ZWq8rVTBwdYsOWZ3hCytUR94bFPFJ8XADeGIgQYspy5PCJZiS1S9P83s6JEGldI0J9lasP9R6cF/lnmD/hqUdFT1pu4ipDEK3uieNO497y3Om7oCE+sD2IUQxC/u7ekHj5B4p+V5TtN5U2n9jWUYZ7p0QuPrRj3SiFzPJJkqazPoTeUcF04qe5dGLk5MbMyWwtFoU67KdkewoPnZJgx4ZlWJUjnWB4h6DH4Uv4+yTL3pkUbr81vzhcQWHtjx0zTprun5IUT/MHB+l9fwJcvF4A8OyFTqEW0d3p7jXc/J/zM4E1ZI05Spam2xc8W+IyW31jc3+Qk53+nsJqCT5+sOy9RoQ8PvbylIzprj4VFzalUt/bePm9Rrm/HzWuxDJ4EwqBf6vAtmWtW++4jL1PDm4RekOfm5rXKH21CsD573q53RGKqgLbDiZDJVZsVxyS72R84DfPKrChl9bw/5YR/L/tgyVlx4roa8jcSIL9IWswqZ77zuETL2zc3kXHXvDF+gYT3LHiF9JmRq0sTR8/2ZvkusuO7398jRkxuzzkdVuJJPzoRcVZVvMsvpCCQbSEFw0deS2bESBEdxcPvyKruVrSCZqkRwFEe2fKIZJx5Z7/kMOzKVfo4SwVH8/uYlWvZwwmGZ2m3z/ONK4XxwheQye1j3tK8sw00lw81saZJkUJKpK1UhuABAdNcLkqkrqgQXYCwgOvZc9mTqxDcUCS7A+OalZdhlEzu3MzKVdQAd+cuRiyYMFKuwSXI66YyypD5iMQFlA3lYV6i0pY24TCUcmcqgtJucE9CZ0fP3pqa6nmPbcw9gV0NPH7StTE943Mo3NntrtioijBJII1OT+i+D9PvyJzLnrTmbJLeksfndCMmB15R6/07TJRj4WYEtZ8J6qQDtB0Zzdlz/3JbZYGRXMLp1+Ql55l9n3vcOXxuWqetf5TsZVNG55+x5U1Nb7N9u+9/rtsMylcX4X4xcdHrjvjXvKiUUCLl4W3JYUJXeWEAwnGtRJz897JI4mO4Tlb2ppd/2loA1TxBaYsmbmul6Ht2eW35vaCZyboMylXjZ09P7jjtHZSp7vj6Q/84uw1hdk4N1sufBoorjNhCckR0IaQFhItoDpClTiYl1R5eRs0ylr41dT8My1W/75mYmK7MMMpVtc3oZxrrjgZLYnvYVaintg+BT+rOPthVNcIBFUXCvCGlmR5VUQFVAESmUjMFc0C/56fCMUQnnoExlz3fwz0cuOpsw1/re1QDg1XRqTQq2lKVM2a69N7X0VY8S0FvjwO7e1EzX872hmVHCPqjmZGpw3GgWSU03wfe0uSVT45gkjm73qnXdVbAkx3TqPaSQqQGOPByaLm2efAWM57w39cidwUzW0rgNmcqeP0PfSDzMxVGZGunv/3DUAVH74tI6RJdFpsJxlQwh+WDw/CS764HkJFPTrgW9N+STY/e9BmUqc8hEWsn6k+aFyWALoeMylW2jmYOdLGSVaz45mwAP6SizN9Xfm6mR3VeUpikEa8VFpJZ6pt+ndItP/9a8C2uRRvDB4Pl+37Ma39olkKYkfu2C32NPjmKGEf96vritF4/23tDMEk2MqS1TGStOMYXSyr/anNN68H/SvNAPu3dCkrOY6Zc5Lrb8wsjUpLFjPmfl1Masc0RXapIDz+gk/Ig2zz8E7+liUqgKZDzmh0H4/yrvTYVjuHsI/bCZKhDdB4Pn/UwzXiMafmNhb6rs4aXjS4lOab33vaGZCY+QN+OSLNIFvb2pCQ9+4+bvb15SWqv6SfNCkLnnYPj+YvempiHSfac2Zp1aey+tXIWklQ9gU74sO8heOOZBrIYDDxM82WpAprK/076ufjw0XZYatVx80Nmcv6ZDcNI2PZnKgo7v2u2hGen1pBL1vaGZ5Yi1bkemhq/hu5x4Z/jC8jsJdUv/rulnSXnAElz0fM7K1J61OU7XCoV1Sw72hI5zvvwy1IbQjndSkZYSSAvu8LKZGJCpIulGt5pR6bSWJZV5XviweX6MPPNzoE0ESQwcK0izTjzfal8b255b/fmgXw91lDTC+69PKknNyVRejJu/s8fPMuJ5a3RXw9sdYvOvp0caR3rOUR6ZymL91MasU+EkVklOIf0RHfjWnvYVnd0J4wm7KFTwvGitDiTw4+C1QZna00biN8kzhWO6bUeHd9IT40dQ4yFSh4IT4xb5Pf8USvrWicc5riFvC/83K1O5/S5JCqX0RNr52fd9hySrNbkKpQuT8rtR6fYGHKtyzlS7EzgQ7pUFy9Lfh6kzO3aPEd+IcUTa9QjOENQCbQvO9Cs/X6P3gMhx9vamcvukS3DJ50vznhQEF7RlJDiAU5LVCsmBBcer6yDCCZCgSZA5GHSwN+HzGBLUDvqNtfF/j/z9GecP1hGzTgVWXAUL0qi1xc5VwYI00Qb1oF8p4HingoKNkxzj8dTFIrxXBpMXT9bH1c5gpQr6TT/bahxjypqTEVyI+hakoZlATjPbEenPSY+/F1sIUzI1qf9JfRC26QX9qlzjg/99pOVMnjkb27pUazvEIc1mAFuwtPaYJoAWtennJdGkbf/UKZvoo3oyVQ01lqk0LGXi6+050Zrn0k+H/W1hS5FwD5SpgAb9zuM6mYBswoZczbKnUOaVseGxkcw2jd4U2Y7I1DysuBrLVDruoxKC8/GtTkJMeq+voExljw/P74xktUFyWfavyYgsb/M3DG1BmSr4u6q1GrS5L1MfEo+Mfb2tlrL8W53U5hOitPs1lKmdNs//Bgf/bNiNvay137sqg8sy1aZ0rbFMnVAluACU6DzSiKzv1lymsg1OeFltkFyW+BjZVqdct0F5rOVYMZlKJFZcnWVqkkQVgVbZChLDokyNjH9lSS5L5L7svTZITnbOva7KVNNWHMpU/0XWOiPh+2suU1k4kUPRBskt6+RnY/AQ0qVzAV5QUSWuNLgt2lL2j83pUZSpTFvsdQVlKjEwia6hTO05pu+/DV8snOiMkxwQRxrPisp7TJY/k+2c6AyMwzLVVFpwlKkhMtWMQJkqGP9G8dacFccDWGQnNd5CN80nylzYWJ9UQFoFt2Wb9P0N6O7L1MyeK5SpEasw+/UUWHE1lKmd9s7nVZPkSJeQvp0gMenfjsoIhwNuOiQNPJVZjZ82p/vZ8oQuylS/D8+8rDdP+H7cm+oj0/WkyTtRpnL7f+S/jrQKDSWxXpJwT/tKP5DdLGx8X4HfKbn1q1hwsXNq12VgENR5lXmAW87L1E7/MnmuvE76IZSpXcsqqyeQO3HWWKayKNSaK21mYNjmtaRRFJq6+CdkBOdbcc+8j4PXBaVQEn5G2IeAhAk5/YWP57W3zqwNnQ/TVWEKpch3PvmNzTntLDfLwxfGPc+LpP9KI1O17yum71IrLvj+2VMoMWj0yNTYtWT7cf0HG63C6puUNhgY6rmOwtqfbMP0CliNSRYcYZ0RDstU9s+tX+yf1trutt5JWe5/T5SpPZ+1+LPOnlRlLA9f2OV53lLPZyR8xxrIVLYfhSbRrEwhG9ItZhNCRwp/2pymMtXPf5ch02/42m97pnAM5zz8GT1KcIxV4Evwf34/uWYEJTiv0akhEH5HiRXnQKbf2Ll6iUu7jTln3LKCtnXqeIK9qVKsDF/oh0y/B2Pn0LLiUpMPd3xik3H2TL+xNjg/Y8UJ7x/mu/1go2UmHCAFKkVyafFpc5p6U8N06iWQqfF+PvUapPXbO2Lpuj54fsJr+Fkh+sL3okwVZfr1M1Z/a3NOeD1Xhi/QgjiLnudFSzFqEhwRXcvY56Wy4oqXqSyO/mCjVUiK/9qTnE9wtF5EgrMhyZoh8Rs0pUzlk4jQiuu2+a8bTyEYmwam0iIz/SAVxv0dHGxMXKx/ujI1yYrjXTelc7DEFCckktGKi1uFHCkb6+9T31IjjTUIFvavp9cpTL1XJNm4ln/4vdhxzGbFSQmOdK24LARHIu1dmSofO+73mn19o2UyzlUZNvLJlQ2TJfGmhscICI6AlXbCrynKPQa9qUR0DfnH9XmkcYLNcp1kEqA3VYjC1uVqn4Xks+35UQhpEULl4Uyy0JKOSSJPUTv3YRUQXIh6B/3Kj1OA//kY9Nttl8vU4FxIckXis9tXWl7Dj+ULY+8c9aYKZky1NV30pnI+S9AnIWkJCC75fGneozoROOdN5R23942CUqIjyQE+t+VvRRvrrMOUTqYmHIMylYiujwbByYAyVX4ueE8hJFf6NTkICh6Dn/j2kQeev2DcWH6uPZ+Y5+5zW1fWPhnyw1A+JBlNfdVjtC3FoA1lqrhfnBeqRCuDyIpDmSonb6Z9LGMqtlQo846HCai4JdzxEJuNaOWlxd9szyfmDfvV0DQND+iGlHDPGSOqYrypCsegN5WIro+GFSciOBI7Pn59a+xN7f2cBlk5fa+VeyLN0pGcznauzjeLPnx+Obln3sRnt+W7Hx4OTVMyfEVmaYUDmE/Qb7ctjUzFoN/kvggILvxbRisuC8GRWLurQb/xc8VI+OHpe/mvy5VqTQ6st1Vdgou0PfOO0JinTwenkmaUiagjovf8qR5qzrGiaYbXjjJV0i/Oi8TjFGCC4Ez0QdjmvkwNSNhkSVFllIbkgODeVKnpqjCAfV6DvP3JkLiK/t6t+SeeIEln5FzoTU3uh6hvPedigN7UsO+9x5XCm8qeLsSfjrRyz0hSCpKDPalvKhzKgLNG1Bv0u/jJ0JQwfqd/y98m9VB4g6I3lXt+VeuJS0gEvalJ54vAbW9qt61LwihX43jUnNrFFglJQudCcmUq753UKlz+1dC0MKmfF0uTrjITyo7hkQjnM3vbUKaK+8V5oUq0MoisOJSpcvKOW+SxS4gkx8GiikQlKWdHjzT2gpdWhG76JfYAlKnJ/RD1redcDFCmhn3vPa68MpWZ5HPf+eA0yT1qTvWz+wbVoCRT4ZiwYfKhwJrbt+XH193uvgdlquj8qtYTl5AIytSk80VQPpkaIPdU6K5bcspVvzoXUlmmxo/rS/isVZWZUHYMj0Q4/ehtQ5kq7hfnhSrRyiCy4lCmysk7bpH33jc+jnA+wipcJzmlwME0syMneFX4WR4bpY0yNbkfor71nIsBytSw773HVUKmFgZnSQ4cDqr1G9LKVKZNOsOsdaxC9d7Ezs1pQ5kavkSZKj1fBOWVqeGx13IOI3HZklNaoOxcyNQyNYIHQ/x6Cfu35p/I3iebLXkkktQPInpYUab2tvGsQsl7ZRBZcShT5eQdt8gFMrUwlDoLSZrZMSGFknhR9Fln94OJBxNlKgOUqWHfe4+rlkxl2nINI6lAqqXMMpX7OweJhU1k5470AWVqD3F5um2xc6FMVYPHnjB2jiQVwPtsFRLm9BNJTgWdi2ZGporaYjiiM1uqkGei5ZNAcCFQpia+VwaRFYcyVU7ecYtcRaby+mEbpSS5NLOjYqbfJ71NGp+Z8D6UqQxQpoZ97z2usjI1ADoeAAny0LxM3bfFr126MyDe9sWD6IZBmdpLXJ5uW+xcKFPV4LEnjJ0jSQXwPluFhHn95E1ctuEsye1pX6FW1Xq8vXPRrMhUYRX++FYU2WyZYCmK+4EyVdwvzgtVopVBZMWhTJWTd9wid1WmBnBdrkY25qeZHTUK0siSAITmdZoHE2UqA5SpYd97j6u8TO2QYs5bu1wnuaXeJive1Kf8zwpBCfAoIeQ0IeQmTb/EO0h0w6BM7SUuT7ctdi6UqWrw2BPGzpGkAnifrULCvH7Gxl8jyD87nE9//qg5RbOQvN7pZYwISFSm6lhxsW89u29rXqu6d3vADxye9CCBgMhSZEku/Gz2IQ5/7/ZVJlMDK052g8qsOO61iP3RiEz1OMc15G3h/7y2mFXII/usVpyuTFW4r9JZccH3z2jFRdsaPTKVfy31ZWqSFcd+r8KAXxYAAB7ASURBVOD3c/daua3MlcG72vKYNOREcXbUkKk0KeaibqeaO/NrzZ15uql/HyFkhfcZKFMZoEwN+y4luKCtmjK1EDhPcuCAGLcoU8fj27Z0MLwz/2B4Z34cpGy0DyhTe4jL022LnQtlqho89oSxc0TGvwBvat5kV4o4uefaV2gWkJPBa/8imQn6nRSFjehiZGd+0WP6mNgP9KY+hDKRt8Gz/ZA9Lt4BVaKVQWTFoTdVTt49FlnCpMjrB9e6ywmlKkn4j02/HmonU3CCFSew3ILffQtu39a88UK39wZoHxtv1rxu6kMo7L1KGoQmHaU/T17amlOeUP738Mwo8XwvHN0C1E/DeLyG/3u4aK1jxYkIjsSOj19frJvaS8JsH2X3R2DFxY+hP1M5rsk5RXLUybCnfUWWipx82pzuJ8+8JX+blUSmSgaBWg0TkPHXCn65b9p3lgSfaUSmul039Tbx/Jx79GdtbHsutfxXwc+GZ8Y8QsYgfnEsSI8vIrjwb1g3tadPSd8tiYRFz1lAcPFjgt/rTHK0Myf3tK/Iwjl8fDo4NeE1/Gy+YR64BK8XJbeWqvW27VtkZBxieo4AOfrWyfDOfGL/frlvmh7r15msoDd13c+W3CDLR7bmjFvDuvgptfo6YzXukUYkPEFmxaE3VZ/giOC7iyw/rnWHJEee0ln6ufYVJWnzyZBfB4Le3KMga0J4HZnkWxj9ipbbdic0ZJkSlOTBX/cImRjZEa/n/XKfT5JvVkimrkPlsuUXt+esWcFZ8c7whX7I8kyv/0ERwZEYycWvL8rUKFkRYkamBqg7yZFOyEhj7Lm2GaeAKoDgVv3i08k3E13XG5MR3S/2T1MyCKuGl1Cm+kHSlNz+5bb6eporWBm+QCe9Sc/zxiPjoGnFZSE40jMm9ZapAWpNcp3e+N/fdw481zbvHOBhe2C6H5ICqBBc8DvtY/+BHX4Iyi/2M2tz5ZKpVJovHd6eS5TlZcHbzZlxCN4+gjJVn+BI0r0VJ27O31nkSXJOhZDELgQlm59/2pyWOiIMopVEcJy2PiIPJI7th1Ub1wKDfumWtecPb8+NVYngKL7dnlv+dntuDIK3bwbtvdfQi73uhRGCC9pqEPTL+855wilL7p+aU6uENHxHQuQCPvOoZTH52W21dTpdbHdSKT0mCTcTf4AbT39r57Jww/Ev9k97jsvUp0DGra86vNZmGj9pXtgFlt2k1+gWL0eZysCCTA3Od36jttu6OO7/TrwZJb4PPxmaWgJHg2mMEsmNRAQ3IqDvl/umhUkAvUZ0M7+M4ELkE/RLyW2Wyu2vbs9N1IngKL7TvvTkO+1LLYi9m+04vKIylYWuKSC1ADHol5vgwhY+k+eHqUIyO9LN8Cc+GZq67ZGG7+n7fIYtWQzGNGUq/N67N5WDB4Q09iYdRPKVqTfrZrmJcHzzEr1/Wj8enqHLDnRp5CJBmdrzd1MyFb5PrvedcyQXuTDiXQ1HwLp78+HQ9DrURX0A6cvX4ByBdTXqdX4eDGzNp0q7LLphVLaWObY3lSYSmPwXSG49eHXTD2Bu/a/hC9Sb3IIJ1YeuTI0eF2usyd5U1fPlAddIbjUsGKO+N/VgfKtP/BhoEz7YNMDXgxk8fh6JTE1sB/SH/ShOptKJYPKF7cuFB+66jj/cvETvk4m/Hb6wBBlwZEXHe4AyVQ74u9UdMXE4RXIqs6NGCqWYVSi+Wb1YPQlNmfr0Cx9Lw1wSpapFmfqUeKT1wvZl7VRSdccfbV6iYzr2N8MXuvulmWuMMrX7Hg2ZGiDXmEvXspB0rC2DdVM7VmHn950BfoX8ZifO7Wa8XUWmepK06R8NnB8LzlOATL1JPNKPBJcN/3rz0hJY49cJytToa8dlagDX4uQemKqbKpgJZWtyLdhS1nM+iaX4FBarRRgvQKY+9Dxy9IWtyxMvbF/OVRZUFd/dvPTku5uX6Dg/zyuuRFCmqsrUAGjJEbMylW0TElJzZ55uqB8nnCzEkT4wMpXKmS98LPXujkv+ZkOmzv5u+3L/C1u49mYD3928tPZvNi+NBiEnBGWq9NwcmRocl+vk61w+uU8Hp7yUKZQir1mZGjvm6OCOeA1tc2B6FCTo3ujnRQjO36D/hY/F+1Y/Gjgv2aBvPOiXWhcTv9u+XLr9pWXFj+i+2AZZCh1lAAz6hTbBZn6KmRwDgYmjcXLromo+WUx9BoskVkeVxXBnw33/BqRagvWYg9Avamku/9bHyamWaBhCTjKVWm9aRXgQ2fFvO17Ysb8auTAZbAnsGRuUqbw+PBUcag3OWXKfDE1RK+qV4LVipt/I76wVJxjo2eaOXnUuHXw0cJ6mQn/dcgol33r7ClpvheOvRi6MdrK1NA4mWUgkhUxlrTjXUyix5xN8x9sXN1qp4lXTwsUaD+FDm9WbKsHF9sC0dL0sLUCmyglO0v/4MYLvTT19Y0hwbuB7G5fWvrcRrtV1gN5UEXK/Z50muQCGZGr8mKW2IKQkLT4aOD8uW4cLkV6mUu/v0a+0L09+pY2eU9dwYmO25RchbwiK8gjaaiJTgzYkueAiGPKmRo6JtdG0Sh9uDkxPZO4xWHA0bZnsmIzeVLolq/8rbfScuoyJjdlVfyuhR1ayytQuSu9NZdtyJzknq3X9aqibUVc2COzruEzVXPPw93SO7OgXt/lo4Hw/ODNe8QSkxf6f0pt6+nfaGNRbNvzlyMUJuDf6RBZQMimU35vKHn8xZ88qcbjuKlhzvTAgUyPHwP/U0bF2b2B68V4nQ3AiPhqY7v9oYJp6WT9OIrgQ+jKVyp7nkeDKiX+3MbsEiSL8AOKay1QCGadzh6uWHE1m+EbwWmTFRS68ukxVmMEa6+SZtwohI2sMgY1CSMm416CWpkaGEX1vKpU7E7+Da2+lx1+MXNwF+18TM5uQSHslvKns69nWRiv3cCdXSY4WIKEWkm2Zymnr2ZsqIC/NFEp6MvX0l9F6qxz+PCZf6yRT4f/nWxstXJML8BDW5VQuYBorTmwddkmOZ3VZLkhD5en4lzE0pLL485GLdEcNzVnHrQ/bRTkK0mhYcU9bGy1hmQCbcHVNjkDtUy4i7SllKq+NlwiTH3+ktnaq6U2lzo9RJLhq499vzK5BoghhMZ2KeVOD34XZemzDyfTnpHNhVsNyfvy/qwT9is7NabMkU0U3XvQYlKc1wqmNWbrOOnFj5CK9x98kHJlKRIRUshRKzDGFhT45a8n1b80vs6mPAqhYaGlkqux8hEdmCTLVR7I31Q/uRYKrJ05tzFLZ+rwXK+xSIW8q216YJeeyXCVxE7diMpVmMun/Mgb31hqvbcyugdd+paIyleLm7EarsCgBp0nO4xRurohMvf6l9mW6/obhIQjy/Y3ZJ9/fmB0P9r5WTKYWasURl72rAT5mvKxhT8vrTaVpZiYObV0udNAR7uLPhi+OgYLp496P5fGmBv8/nN1o2aiVrAzX5SqBikldlFem0qj3MSQ4hAx/vAl7Xzlp1ksoUykScy/aRhlIruuAKK9MvQkEh+EhiET88ebsgz/ZnKXrdNdLLlMJ4Sw55Q3nSW7f1vyT+NqcCZkqOx/hkVmCTPXBl6knD21dphIV198QWviTzVmadfhkZ5IvnTeVFO1wCFAGS474s8EzKBwS+4PDMtXfXH9o63Lh5jqivPgPfphJYywuX0sgUwmkhS8cpSC5gS2/Ipa22VugTPV3L6A8RZjAf+zs9xyL1wZ2XKZSK047dZkNOO9dDbAzML3L62QFkVcyj/1PegbAqjeVWputL2JBZ4Ql/JeRll/R32O8rz7c8aYSeA5GXSG5sshVMtCpch+avw7KVN97igSHsIkfbLSWIHi4K1/dk6mLrhAcKZMlF2B7YJqa7gd1rTjLKZSugwWHzgVEbnhjxM/NdtGBFErs74XHxcVRGkuOwYRD3lQa2vLtL25fnkSCQ+SN0zQBZYMc9bzY3ldOP3LyplIYqZliEqUjucGdeZqqZpZtK0im+oVlvriNwb2I4nD6XisIHqZqomiZen12o+XcXuzSydUA7YHpsAh1zjLV35r1fBvJDeEW/nSkRUNNlthksyQ/mbo+u9EyWuLTFMooVwNQs3g9Z5lKZ8t+JDiEi/hPHSsqUuQ6J5n6EEJcnERpLTmKzYHpXZCM7yCf7IxZcbTK0OQoxr0hSoJrI61+sOqOBFYc17pj21LIVK8TLjI2W0DtBlWUmuQIEB1kEfZz5huWqQ+9BmmN4q4FRElxdaQ1RhpRCWtQptIwlgmXCY5UgeQoNjoWHQ2QZEq+ZQr6peZ36+A2khuiGlg40JqAjD6Rou0BUgT9rgDBOR9VUAmSC3BvYHq8Q3aNvSmtODpwSwfRY4qoKP7zAd85MRk47Yg+wVEDYLK10SrNM1Ipkgvwy33TdNYal1e2DxtpEedVr0GWD25fdiZKG4GwiSsH/PKA455HxqF6WF+CTKXSdLHV2XFRKlSS5Fj8v33TY17Dr3rvR2ED4a0S0njy2zvoSEAgKOZG/PCPXYGXFAiOSlH6jKxdLIEsFaHyJIdAIOqNMsfJIRAIRCKQ5BAIRKWBJIdAICoNJDkEAlFpIMkhEIhKA0kOgUBUGkhyCASi0kCSQyAQlQaSHAKBqDSQ5BAIRKWBJIdAICoNJDkEAlFpIMkhEIhKA0kOgUBUGkhyCASi0kCSQyAQlcZnqvjlFg60zho+5d1z91q3TJxo4UDrECHkmIlzxXD/3L3WWxbOG2LhQOs4IWS/wVOavK7OjrkuLHyXtLhx7l7rsSN9SY3KZQaGB/HHhk9LCWTA1MkWDrTetUB09GYcsHVTLhxo7SaE7BBCdhs65X1CyJdM9LcMY66DhQMtFx/Ku4QQOok+PnevdcOB/iijinL1lIVz7ocHyRTOWegjJZ8FC+cNsGCQ4CiuGiTkMox52XEI7oEfUhKmE7VDFqcUlSI5i1KQmHyQzt1r0VnRxmx4auFAy6Sc9AHX1SSR3DJlDZRlzCsIes0XgPAWwNJ3ElWz5GzelMfggTKFcyAxTeOHFs5p2kI0acmWacyrCmrR/ZqSnYvfrzIkBzOJ7ZnXpDVHCe6qqfMxOGZSZi0caJ0ybCndAEs2M8o25jXA2YUDLUp2tizrVKiSJZfHzXjKpFl+7l7rKizomobJGdXkusvjEllx4We4LMUcBL1W77pk1VWJ5PJaBDX9YNlwQuw3sSgM5zC5xmfS2UBKPOZ1ALXqTHu8U6ESJAeSKq/Z1ugND7FYNpwQZ7NYIODAMEki98FyNYIyj3mNcBzCpQpFVSy5PF39++EBM4mrFpwQWUNKzhomkdcMnotUYMzrgmNFS9fSkxwscua90Gn0ATt3r3XfkhPiVBrvIFxTkw/1DZO7B6ow5jXD2SIniSpYckXcfMdMe5BAyt03eU5AmlnU5Mxrw4tciTGvGRZsxHCqoNQkBxetqBnCxoNmwwmhFVICM67J2LCrYKkaQQXHvC7YnaOjKIKyW3JF3nTGdxfABnsbm+yVLDNwVDjrbABUasxrhkKuX2lJzsIDmQZlseZUQ0pOGQ4ZMfpdKjzmdULu41dmS+54jiEEImQK0+ABpJ0NopP2FWZYk2txtyykfqrkmNcMuQdXlzmfnAsZEHbDg2c6zu2GBasqCCkRhXKYdvObDhkhFR9zm6De7cTxYLbJ2fZe53r9SmnJgZfLlbUR4w+exX2t3JASuJ4mZZhRZwOpwZi7AHrf0TXUc/daLxNCXrbk7Sd5h/+UVa66dJPttxFaAKmIbGSm5VlsJjOX2CLoyo+5S4C4xpctZcpBkpMB1o5cu8FsPYC2QkrCEAz43aizwXR24pqNuTOwuD68O891uTJaci7eXMdsuMYhJZE1qwhuNJNrcXctpcauzZi7BhhPG7I1t2tXKpKDh9LU2pHp7Ly2HkQb+1qDkBLT+1ONz/o1HXPXYGPZBElOAJOZJ0wH3h63YYKD9LMSUmL4ITW6P5VB7cbcQdiw5FCuCmBqO89j5qE0lbTSWpZakAymk2uavMlsORtIXcfcMZS6LGFpSM5wzc+3mMVxkzO7zRvehjVnCsZDRgiOuUsotbVaJkvO5M3E3uQm12islbGzmFwzK2zsTw1Q6zF3CKV2sJSC5AyXnbvPrh3B7F6Wmd2GEyIrrFiYOOZOwUb4jq1A4x6UxZIzmsBRsS0trJWxs5hcMy1s7E8NgGPuACzEUQZAkgtgoexcz80Ns7zJi25tZreYXDMNbOxPxTF3BBaSNgR4bGMNV4QyWHJG12Uk0fgmZ3bbmRaskIsmrDgbADjmBQO2rb1ryelgowynEGUgOZOxXDJpZVp22bTmbllKrqkKmyEjBMe8GFCSpkHiUGHrXYsOBxvxlEI0PM/L8/O0AOsBpjaP08XnAdkBUCfSlKeMmuS/YehcPQApsWPr/Al4zdL2LRzzTp/cfSjN4EuwZTEXuG7J2V58jsPkzL7bZoUii5unk2Brf2oAHPNq41aeBEdcJjlYEzDpsUq8mcFTaDJEw/YNb2vztAzWiBXHvBbIfZnFZUvO5M1yS2OR3KSVcshm3jGLyTVFsLU/NQCOebVhWwVw4STJwXqTyShyndnD9CBYndktJteMw1aiAB845rVAIVsTnXQ8LBxoLVQsjc2AzbignJwQ5yxu38IxZ1BRxwMNOSqE5Jyz5CwEgroA29ac7Z0QNven4phXH3eLIjjiqFw1mT/MFeQRKGpzX6vt4GMc8+riPtSKKAyuklzVYDK7LRcWk2u+ZdnZQHDMKwsaKvKy6ZofunCK5BwrO2caeaw32Vj3s0pwOOaVxS0guML3WbtmyVX5pqh8GbuUwDGvHuiOmMItuADOkJyjZedMo84zew9wzCuHt8Cr7FRyV5csuTrcDLUoY6cBHPNqwWZmmtRwguQMl51zHWjN4ZhXFaYSKxiFK5ZcFUMIRKhLGbsk4JhXD4cgqNspuERydUFdytglAcc8P9yF8KL4j41sIGddSwX/maI7YDGHvMs45VithlyBY5477vJ2rCwc8DOwvG/BoqY5+qR5/PKEC5ZcHQMm99c87xiOuQOwuB1wv0uytVCSgxiiusaO1TIaHsfcLYCFZyPH21lXYgSLtuTqvO3lWE0DRXHM3cM5S/uef+iCw6WwNTmIHTJtvr9lsRLQbguhAMfzLupRJHDMfTg35lS2Lhzws4SYDgHZD9evsAwkpGDHg40Z/TWbW0kWDrSOG14wp5kqnAygtAQcc0fHnO5SACvT9BhR2XrXYhHyRBQiV8GENT1DyuprmoKN7Sq1kG845hG4Oua2ZOtCkbK1qDW54xbc1nnsl7PxGXWJhscx78LJMbdYAc5WJX4lFEVyptdl7ueQ8yzI2Wba7K5LGTsc8y6cHXPYXG9DWp4C6Z87cic5C2XnSE4zegArN4CFczoDHHMuXB7zSnlbi7DkbAxubouasIBqetG46mXscMx74eyYg2y1kfJ+dxGb+HMlOQtl5wgsPuftqbJhRVTSmsMxl8LZMQditzGRHM9btuZtyZV6Rrf8mccrmncMx1wM18f8NYuyNbfvnRvJWSo797iI+BuwImwselfKmsMxV4LL1txji7I1N29rnpacjfxhRaZZtiJfKmbN4Zgnw+kxtyxbcwmlcbKCPgKBQJiCi3VXEQgEwhiQ5BAIRKWBJIdAICoNJDkEAlFpIMkhEIhKA0kOgUBUGkhyCASi0kCSQyAQlUbhdVeTcHjkjChq/vGdjWtFRr8jDOHwyBlh5PudjWulq08ruWdv3dm4ZqseBUIA53Y8HB45E2StOKuxJeiciRsIPntH4dAv6X7W4ZEzO5JaAffhnKk3Qx8eOXMcivqKcC5OGAl9yoKBOxvXhFlCDo+cOcSMsSpuwc8N9jpZ/A4h7mxca8j+nuKevQX3qxaBG/iuN+Bee0s2PoY/UwTpPWISzlhycKMspEzLswDnoDfP1Tsb19JupFZ96E4Z3ri830CFdWeK+YoAY/zDlHVXg3qtC4dHzrwFZFdo1avDI2eCjea6m+z97wIW7NUcrdWgn/Qa3oXPLqzATF5wYk0OrJAdA3nH6M3z7uGRM9oPPNywqp9/HI43iQUgAW3Aw+L0xv7DI2eOwRibSBRpuoKWNuCe/XXGLCK7YdzfTzv2GUCt6R8fHjkjs/4rgcJJDgjJ9IU+e3jkzLua79HJmGEjhRBJY40B2TpdDAfkqe54yGCj7oIyYFIxec/S6/M+XKe8cTzFs1IqFEpycLPYekCPyRa0OdAlLRskdxwsHh3orF0WBdOT2FtZ1i+zAO4pG0sDu0GFFGGhHkujfsqCwkgOzH2bF7ZnoV3Sl2Mp5M9++A6moZwDHx4I1624UxakZSFedbhPbN6zAdEVMWmdTTHBlgKFOB6YBVtV3I/d2PsTLCllggOktcpOWZBNlDzPKva/DLOv6kRwlZNqm/f97hYYhqFThOVWLJOwqsUdTFw26p8m4ZSl7MeFoijvqurs7lcNEnjRXjs8cuaHHIJ6VcdjxLj/04Ca+fstuMLprHpDJslg1s2jIEhWV7/KOpPoM64y4xMQXsSKu7NxbUB24sMjZ1RipBK/o4ZzR3TPXtWQusH4p7nuL8c/m1FNSf33HWoplgJyCwdJg6LkqorEeswbMBZ3Nq7RMI6XmaaXU7jEsxKFjbU5FUs399JuugCLPcl6eSx7QOjfqFULsWrnCnQ4qIyz9J4F61zVQjM2gcEz8ari4ZWTrLmTHFggKmb7ayqzA9xQr0EwbRpTO4lwk855ytIayimRt83SOldR2E29e/CdpACyy93hoLFmey7pngWiU7lPjU6eIPFVZL7rTixtFCFXVWaK+zoWWdrtXZLtNwEewwz4a8kxQXydjcXwhZilmmY9Myt2Do+cUT1FZC2UEtLhkTOPFR6cIDj2h7H1V6lkzxGq96zqPXBV4Zx0bfaQ4fVHlWuZhuRS3yN5oAi5qjIj5iVJkiRB8JAl9cdWWbljHAvHRgUsm9C1roOdL/Tn13RNja5lFez5M3rPguJQIRzT1nrlrDQVuEpy1hcx4aFJenDeiv0vwiGLD+HZQA4zW9/KBBPeugUIrXi/ILKzcc+qWGjGSA6WPlScQM46ENKiCLmqMpuobh6Wec7uJ3jekqy4MFSBSmcF2XXckvud3ddauoBNKuEMeoIPAdnlLXmM3bMZjk8NzZjUyoWQ1DKfHFhGSRIzvr6StN5yymK0+gLI1jxCRozjzsa1Vw0/PAuau1nqhHdB4oc/sONE5d6868gaqFEUQXJFrEXEkURwvHU4lTUXmySUFDLi9M15Z+Pay4YDXM/muDPAxj3rone8kvkZiyA5FTO9aJLbzSx6B7Ph+wrnzWJdZLnBzrlOcqQbAhLEu2X1GtpKksCDjXvWtfWxW1VNQlvEmpzKwB23ta0F1idskSiN+TqV8ma5D99Zd90tCLmw9cAbj2aH9TR/TY2RnWli//LK2mH0ntWIFc2L5O5rBAvzgDseYlBZm9mvEhyaErZn/yyS9UaKGzsIkC2lVwysO/ozAFbeqxrJQ/OSq6bvWRWL/35Oe3RvZc1K7TpyJzmNGKHUSSRFgPPZDkE4ljYvGNxoOhbs3bJIDNjVkPhwU0/2nY1r5wxnXs4EuGdVJpHEexaugco9mMe40jjQl6tMcKRA76rKTL0bEgmaJKW81nBSfw7s9FANLC0iU4U2mJjEBSa4N2kiUHnw8nw4VUgnSJXEvWc1c9HlERB/vKD8dbmiqCwkNxTXYIKb5m5s0LWz4SqGjZjCcYjlSvsQnlPcjZFHTJPOlp0ANyB5QoD4dwlqchAY17gsS0qlFSC3lEtUUivuGd4P92zaVEsEliDSLj/4CQLgfqfOMll/gy2CWdbjiKF7xBoKseRSyLJDzFafhZRezDy3Q2UiVLjBZdfnccaiN7kBLAXZtTgeG1udwjB5ZyTReSiPxb6T6r1338TYwjOm0t/jFte/nUBhwcAgy/KUWyoD6S9+J/3EN81n+DwhwAMpms2zzPR5w1bsYO7XACxnm/dskKrJiAyH/qrIbOPr3y6h0B0PbCiBTSimyrml+tAoLkSbSI/Om4nvl6XgssUiO3eLsmQ1c8LpICA408R9TuFezTuzTa4ofFuXRU8aO4OpWFW661sqUimrNRdYDuyPM15HBRy3sERw16S1kwZAdFnXsVjcTVOwXAUaS0OVla1O7F2FMIgBQ2ssV0F2BsGmqunNdV32Kn09llUGMHFkwU9pNlDDuJrct0qdOU7EdMFyy29kDPV4zHwna9Jbw2NfSdnqTAV9GORXIbRAtyrSOUijzbvhVGYn7RJ3dNYFr29SKMTZkllfRhE8YIx3+5DmOl2wo8OVBJohgsX9wyNnrsJ3UvWg3oLlkTwl92vwXMn6txv2SKusOZcGDc9TqfNRHCQBpHfLZNUgepGwxU4rO7RLkGScvlVgpbHawnmSQyAQiCyoZT45BAJRHyDJIRCISgNJDoFAVBpIcggEotJAkkMgEJUGkhwCgag0kOQQCESlgSSHQCAqDSQ5BAJRaSDJIRCI6oIQ8v8ByAMZJYwOqbwAAAAASUVORK5CYII=;" vertex="1" parent="1">
          <mxGeometry x="90" y="193" width="59.81" height="60" as="geometry" />
        </mxCell>
      </root>
    </mxGraphModel>
  </diagram>
  <diagram name="productos" id="l5m_4shoFTKmhonhuOZq">
    <mxGraphModel dx="2274" dy="750" grid="1" gridSize="10" guides="1" tooltips="1" connect="1" arrows="1" fold="1" page="1" pageScale="1" pageWidth="827" pageHeight="1169" math="0" shadow="0">
      <root>
        <mxCell id="Fpg7awucpTLVWwC--4ag-0" />
        <mxCell id="Fpg7awucpTLVWwC--4ag-1" parent="Fpg7awucpTLVWwC--4ag-0" />
        <mxCell id="Fpg7awucpTLVWwC--4ag-2" value="" style="strokeWidth=1;shadow=0;dashed=0;align=center;html=1;shape=mxgraph.mockup.containers.browserWindow;rSize=0;strokeColor2=#008cff;strokeColor3=#c4c4c4;mainText=,;recursiveResize=0;" vertex="1" parent="Fpg7awucpTLVWwC--4ag-1">
          <mxGeometry x="10" y="80" width="1180" height="1490" as="geometry" />
        </mxCell>
        <mxCell id="Fpg7awucpTLVWwC--4ag-3" value="Page 1" style="strokeWidth=1;shadow=0;dashed=0;align=center;html=1;shape=mxgraph.mockup.containers.anchor;fontSize=17;fontColor=#666666;align=left;" vertex="1" parent="Fpg7awucpTLVWwC--4ag-2">
          <mxGeometry x="60" y="12" width="110" height="26" as="geometry" />
        </mxCell>
        <mxCell id="Fpg7awucpTLVWwC--4ag-4" value="https://www.offlinegamestore.pe/productos" style="strokeWidth=1;shadow=0;dashed=0;align=center;html=1;shape=mxgraph.mockup.containers.anchor;rSize=0;fontSize=17;fontColor=#666666;align=left;" vertex="1" parent="Fpg7awucpTLVWwC--4ag-2">
          <mxGeometry x="130" y="60" width="430" height="26" as="geometry" />
        </mxCell>
        <mxCell id="Fpg7awucpTLVWwC--4ag-5" value="CategorÃ­as" style="rounded=1;fillColor=#F1F2F4;strokeColor=none;html=1;fontColor=#596780;align=left;fontSize=10;spacingLeft=10" vertex="1" parent="Fpg7awucpTLVWwC--4ag-2">
          <mxGeometry x="900" y="127" width="90" height="33" as="geometry" />
        </mxCell>
        <mxCell id="Fpg7awucpTLVWwC--4ag-6" value="" style="shape=triangle;direction=south;fillColor=#596780;strokeColor=none;html=1" vertex="1" parent="Fpg7awucpTLVWwC--4ag-5">
          <mxGeometry x="1" y="0.5" width="12" height="6" relative="1" as="geometry">
            <mxPoint x="-20" y="-3" as="offset" />
          </mxGeometry>
        </mxCell>
        <mxCell id="Fpg7awucpTLVWwC--4ag-7" value="Accesorios" style="rounded=1;fillColor=#F1F2F4;strokeColor=none;html=1;fontColor=#596780;align=left;fontSize=10;spacingLeft=10" vertex="1" parent="Fpg7awucpTLVWwC--4ag-2">
          <mxGeometry x="790" y="127" width="90" height="33" as="geometry" />
        </mxCell>
        <mxCell id="Fpg7awucpTLVWwC--4ag-8" value="" style="shape=triangle;direction=south;fillColor=#596780;strokeColor=none;html=1" vertex="1" parent="Fpg7awucpTLVWwC--4ag-7">
          <mxGeometry x="1" y="0.5" width="12" height="6" relative="1" as="geometry">
            <mxPoint x="-20" y="-3" as="offset" />
          </mxGeometry>
        </mxCell>
        <mxCell id="Fpg7awucpTLVWwC--4ag-9" value="Productos" style="rounded=1;fillColor=#F1F2F4;strokeColor=none;html=1;fontColor=#596780;align=left;fontSize=10;spacingLeft=10" vertex="1" parent="Fpg7awucpTLVWwC--4ag-2">
          <mxGeometry x="680" y="127" width="90" height="33" as="geometry" />
        </mxCell>
        <mxCell id="Fpg7awucpTLVWwC--4ag-10" value="" style="shape=triangle;direction=south;fillColor=#596780;strokeColor=none;html=1" vertex="1" parent="Fpg7awucpTLVWwC--4ag-9">
          <mxGeometry x="1" y="0.5" width="12" height="6" relative="1" as="geometry">
            <mxPoint x="-20" y="-3" as="offset" />
          </mxGeometry>
        </mxCell>
        <mxCell id="Fpg7awucpTLVWwC--4ag-11" value="Inicio" style="rounded=1;fillColor=#F1F2F4;strokeColor=none;html=1;fontColor=#596780;align=left;fontSize=10;spacingLeft=10" vertex="1" parent="Fpg7awucpTLVWwC--4ag-2">
          <mxGeometry x="570" y="127" width="90" height="33" as="geometry" />
        </mxCell>
        <mxCell id="Fpg7awucpTLVWwC--4ag-12" value="Try now" style="rounded=1;align=center;strokeColor=none;html=1;fontColor=#ffffff;fontSize=12;fillColor=#008CFF;" vertex="1" parent="Fpg7awucpTLVWwC--4ag-2">
          <mxGeometry x="1045" y="127" width="86" height="33" as="geometry" />
        </mxCell>
        <mxCell id="Fpg7awucpTLVWwC--4ag-14" value="" style="verticalLabelPosition=bottom;shadow=0;dashed=0;align=center;html=1;verticalAlign=top;strokeWidth=1;shape=mxgraph.mockup.markup.line;strokeColor=#999999;fillColor=#008CFF;fontSize=13;fontColor=#0066CC;" vertex="1" parent="Fpg7awucpTLVWwC--4ag-2">
          <mxGeometry y="1180" width="1150" height="20" as="geometry" />
        </mxCell>
        <mxCell id="Fpg7awucpTLVWwC--4ag-15" value="" style="shape=rect;fillColor=#ffffff;strokeColor=#eeeeee;shadow=0;fontSize=13;fontColor=#0066CC;" vertex="1" parent="Fpg7awucpTLVWwC--4ag-2">
          <mxGeometry x="425" y="1420" width="300" height="40" as="geometry" />
        </mxCell>
        <mxCell id="Fpg7awucpTLVWwC--4ag-16" value="BUTTON" style="shape=rect;strokeColor=none;fillColor=none;fontSize=12;fontColor=#2196F3;dashed=0;" vertex="1" parent="Fpg7awucpTLVWwC--4ag-15">
          <mxGeometry width="75" height="40" as="geometry" />
        </mxCell>
        <mxCell id="Fpg7awucpTLVWwC--4ag-17" value="BUTTON" style="shape=rect;strokeColor=none;fillColor=none;fontSize=12;fontColor=#2196F3;dashed=0;" vertex="1" parent="Fpg7awucpTLVWwC--4ag-15">
          <mxGeometry x="75" width="75" height="40" as="geometry" />
        </mxCell>
        <mxCell id="Fpg7awucpTLVWwC--4ag-18" value="BUTTON" style="shape=rect;strokeColor=none;fillColor=none;fontSize=12;fontColor=#2196F3;dashed=0;" vertex="1" parent="Fpg7awucpTLVWwC--4ag-15">
          <mxGeometry x="150" width="75" height="40" as="geometry" />
        </mxCell>
        <mxCell id="Fpg7awucpTLVWwC--4ag-19" value="BUTTON" style="shape=rect;strokeColor=none;fillColor=none;fontSize=12;fontColor=#2196F3;dashed=0;" vertex="1" parent="Fpg7awucpTLVWwC--4ag-15">
          <mxGeometry x="225" width="75" height="40" as="geometry" />
        </mxCell>
        <mxCell id="Fpg7awucpTLVWwC--4ag-20" value="" style="shape=image;html=1;verticalAlign=top;verticalLabelPosition=bottom;labelBackgroundColor=#ffffff;imageAspect=0;aspect=fixed;image=https://cdn3.iconfinder.com/data/icons/peelicons-vol-1/50/LinkedIn-128.png;fillColor=#008CFF;fontSize=13;fontColor=#0066CC;" vertex="1" parent="Fpg7awucpTLVWwC--4ag-2">
          <mxGeometry x="870" y="1420" width="30" height="30" as="geometry" />
        </mxCell>
        <mxCell id="Fpg7awucpTLVWwC--4ag-21" value="" style="shape=image;html=1;verticalAlign=top;verticalLabelPosition=bottom;labelBackgroundColor=#ffffff;imageAspect=0;aspect=fixed;image=https://cdn3.iconfinder.com/data/icons/peelicons-vol-1/50/Facebook-128.png;fillColor=#008CFF;fontSize=13;fontColor=#0066CC;" vertex="1" parent="Fpg7awucpTLVWwC--4ag-2">
          <mxGeometry x="920" y="1420" width="30" height="30" as="geometry" />
        </mxCell>
        <mxCell id="Fpg7awucpTLVWwC--4ag-22" value="" style="shape=image;html=1;verticalAlign=top;verticalLabelPosition=bottom;labelBackgroundColor=#ffffff;imageAspect=0;aspect=fixed;image=https://cdn3.iconfinder.com/data/icons/peelicons-vol-1/50/Twitter-128.png;fillColor=#008CFF;fontSize=13;fontColor=#0066CC;" vertex="1" parent="Fpg7awucpTLVWwC--4ag-2">
          <mxGeometry x="970" y="1420" width="30" height="30" as="geometry" />
        </mxCell>
        <mxCell id="Fpg7awucpTLVWwC--4ag-31" value="&lt;b&gt;&lt;font style=&quot;font-size: 20px&quot;&gt;Card title&lt;/font&gt;&lt;/b&gt;&lt;br style=&quot;font-size: 14px&quot;&gt;&lt;br style=&quot;font-size: 14px&quot;&gt;Some quick example text to build on the card title and make up the bulk of the card&#39;s content." style="html=1;shadow=0;dashed=0;shape=mxgraph.bootstrap.rrect;rSize=5;strokeColor=#DFDFDF;html=1;whiteSpace=wrap;fillColor=#ffffff;fontColor=#000000;verticalAlign=bottom;align=left;spacing=20;spacingBottom=50;fontSize=14;" vertex="1" parent="Fpg7awucpTLVWwC--4ag-2">
          <mxGeometry x="45" y="794" width="250" height="350" as="geometry" />
        </mxCell>
        <mxCell id="Fpg7awucpTLVWwC--4ag-32" value="Image cap" style="html=1;shadow=0;dashed=0;shape=mxgraph.bootstrap.topButton;rSize=5;perimeter=none;whiteSpace=wrap;fillColor=#868E96;strokeColor=#DFDFDF;fontColor=#DEE2E6;resizeWidth=1;fontSize=18;" vertex="1" parent="Fpg7awucpTLVWwC--4ag-31">
          <mxGeometry width="250" height="180" relative="1" as="geometry" />
        </mxCell>
        <mxCell id="Fpg7awucpTLVWwC--4ag-33" value="&lt;b&gt;&lt;font style=&quot;font-size: 20px&quot;&gt;Card title&lt;/font&gt;&lt;/b&gt;&lt;br style=&quot;font-size: 14px&quot;&gt;&lt;br style=&quot;font-size: 14px&quot;&gt;Some quick example text to build on the card title and make up the bulk of the card&#39;s content." style="html=1;shadow=0;dashed=0;shape=mxgraph.bootstrap.rrect;rSize=5;strokeColor=#DFDFDF;html=1;whiteSpace=wrap;fillColor=#ffffff;fontColor=#000000;verticalAlign=bottom;align=left;spacing=20;spacingBottom=50;fontSize=14;" vertex="1" parent="Fpg7awucpTLVWwC--4ag-2">
          <mxGeometry x="315" y="794" width="250" height="350" as="geometry" />
        </mxCell>
        <mxCell id="Fpg7awucpTLVWwC--4ag-34" value="Image cap" style="html=1;shadow=0;dashed=0;shape=mxgraph.bootstrap.topButton;rSize=5;perimeter=none;whiteSpace=wrap;fillColor=#868E96;strokeColor=#DFDFDF;fontColor=#DEE2E6;resizeWidth=1;fontSize=18;" vertex="1" parent="Fpg7awucpTLVWwC--4ag-33">
          <mxGeometry width="250" height="180" relative="1" as="geometry" />
        </mxCell>
        <mxCell id="Fpg7awucpTLVWwC--4ag-35" value="&lt;b&gt;&lt;font style=&quot;font-size: 20px&quot;&gt;Card title&lt;/font&gt;&lt;/b&gt;&lt;br style=&quot;font-size: 14px&quot;&gt;&lt;br style=&quot;font-size: 14px&quot;&gt;Some quick example text to build on the card title and make up the bulk of the card&#39;s content." style="html=1;shadow=0;dashed=0;shape=mxgraph.bootstrap.rrect;rSize=5;strokeColor=#DFDFDF;html=1;whiteSpace=wrap;fillColor=#ffffff;fontColor=#000000;verticalAlign=bottom;align=left;spacing=20;spacingBottom=50;fontSize=14;" vertex="1" parent="Fpg7awucpTLVWwC--4ag-2">
          <mxGeometry x="585" y="794" width="250" height="350" as="geometry" />
        </mxCell>
        <mxCell id="Fpg7awucpTLVWwC--4ag-36" value="Image cap" style="html=1;shadow=0;dashed=0;shape=mxgraph.bootstrap.topButton;rSize=5;perimeter=none;whiteSpace=wrap;fillColor=#868E96;strokeColor=#DFDFDF;fontColor=#DEE2E6;resizeWidth=1;fontSize=18;" vertex="1" parent="Fpg7awucpTLVWwC--4ag-35">
          <mxGeometry width="250" height="180" relative="1" as="geometry" />
        </mxCell>
        <mxCell id="Fpg7awucpTLVWwC--4ag-37" value="&lt;b&gt;&lt;font style=&quot;font-size: 20px&quot;&gt;Card title&lt;/font&gt;&lt;/b&gt;&lt;br style=&quot;font-size: 14px&quot;&gt;&lt;br style=&quot;font-size: 14px&quot;&gt;Some quick example text to build on the card title and make up the bulk of the card&#39;s content." style="html=1;shadow=0;dashed=0;shape=mxgraph.bootstrap.rrect;rSize=5;strokeColor=#DFDFDF;html=1;whiteSpace=wrap;fillColor=#ffffff;fontColor=#000000;verticalAlign=bottom;align=left;spacing=20;spacingBottom=50;fontSize=14;" vertex="1" parent="Fpg7awucpTLVWwC--4ag-2">
          <mxGeometry x="855" y="794" width="250" height="350" as="geometry" />
        </mxCell>
        <mxCell id="Fpg7awucpTLVWwC--4ag-38" value="Image cap" style="html=1;shadow=0;dashed=0;shape=mxgraph.bootstrap.topButton;rSize=5;perimeter=none;whiteSpace=wrap;fillColor=#868E96;strokeColor=#DFDFDF;fontColor=#DEE2E6;resizeWidth=1;fontSize=18;" vertex="1" parent="Fpg7awucpTLVWwC--4ag-37">
          <mxGeometry width="250" height="180" relative="1" as="geometry" />
        </mxCell>
        <mxCell id="Fpg7awucpTLVWwC--4ag-39" value="Productos 2021" style="text;strokeColor=none;fillColor=none;html=1;fontSize=24;fontStyle=1;verticalAlign=middle;align=center;" vertex="1" parent="Fpg7awucpTLVWwC--4ag-2">
          <mxGeometry x="500" y="320" width="100" height="40" as="geometry" />
        </mxCell>
        <mxCell id="cWzvO2JFx1QMmyimes1U-2" value="" style="dashed=0;verticalLabelPosition=bottom;verticalAlign=top;align=center;shape=mxgraph.gmdl.slider2;barPos=100;strokeColor=#3F51B5;opacity=100;strokeWidth=2;fillColor=#3F51B5;handleSize=20;shadow=0;" vertex="1" parent="Fpg7awucpTLVWwC--4ag-2">
          <mxGeometry x="95" y="250" width="200" height="20" as="geometry" />
        </mxCell>
        <mxCell id="cWzvO2JFx1QMmyimes1U-4" value="Filtrar&lt;br&gt;&lt;div&gt;&lt;span&gt;por nombre&lt;/span&gt;&lt;/div&gt;" style="text;strokeColor=none;fillColor=none;html=1;fontSize=24;fontStyle=1;verticalAlign=middle;align=left;" vertex="1" parent="Fpg7awucpTLVWwC--4ag-2">
          <mxGeometry x="585" y="200" width="160" height="80" as="geometry" />
        </mxCell>
        <UserObject label="&lt;div class=&quot;fw-bold&quot; style=&quot;margin-right: 0px ; margin-bottom: 0px ; margin-left: 0px ; padding-top: 0px ; padding-bottom: 0px ; box-sizing: border-box ; width: 1140px ; max-width: 100% ; color: rgb(33 , 37 , 41) ; font-family: , , &amp;#34;segoe ui&amp;#34; , &amp;#34;roboto&amp;#34; , &amp;#34;helvetica neue&amp;#34; , &amp;#34;arial&amp;#34; , &amp;#34;noto sans&amp;#34; , &amp;#34;liberation sans&amp;#34; , sans-serif , &amp;#34;apple color emoji&amp;#34; , &amp;#34;segoe ui emoji&amp;#34; , &amp;#34;segoe ui symbol&amp;#34; , &amp;#34;noto color emoji&amp;#34; ; font-size: 16px ; background-color: rgb(255 , 255 , 255) ; font-weight: 700&quot;&gt;&lt;p style=&quot;margin: 0px 0px 1rem ; padding: 0px ; box-sizing: border-box&quot;&gt;Tenemos el stock mÃ¡s variado de videojuegos y consolas en el PerÃº&lt;/p&gt;&lt;div&gt;&lt;br&gt;&lt;/div&gt;&lt;/div&gt;&lt;div class=&quot;col-6 col-lg-3&quot; style=&quot;margin-right: 0px ; margin-bottom: 0px ; margin-left: 0px ; padding-top: 0px ; padding-bottom: 0px ; box-sizing: border-box ; width: 285px ; max-width: 100% ; color: rgb(33 , 37 , 41) ; font-family: , , &amp;#34;segoe ui&amp;#34; , &amp;#34;roboto&amp;#34; , &amp;#34;helvetica neue&amp;#34; , &amp;#34;arial&amp;#34; , &amp;#34;noto sans&amp;#34; , &amp;#34;liberation sans&amp;#34; , sans-serif , &amp;#34;apple color emoji&amp;#34; , &amp;#34;segoe ui emoji&amp;#34; , &amp;#34;segoe ui symbol&amp;#34; , &amp;#34;noto color emoji&amp;#34; ; font-size: 16px ; background-color: rgb(255 , 255 , 255)&quot;&gt;&lt;/div&gt;" placeholders="1" name="Variable" id="cWzvO2JFx1QMmyimes1U-6">
          <mxCell style="text;html=1;strokeColor=none;fillColor=none;align=center;verticalAlign=middle;whiteSpace=wrap;overflow=hidden;" vertex="1" parent="Fpg7awucpTLVWwC--4ag-2">
            <mxGeometry x="-13" y="377" width="830" height="20" as="geometry" />
          </mxCell>
        </UserObject>
        <mxCell id="cWzvO2JFx1QMmyimes1U-7" value="&lt;b&gt;&lt;font style=&quot;font-size: 20px&quot;&gt;Card title&lt;/font&gt;&lt;/b&gt;&lt;br style=&quot;font-size: 14px&quot;&gt;&lt;br style=&quot;font-size: 14px&quot;&gt;Some quick example text to build on the card title and make up the bulk of the card&#39;s content." style="html=1;shadow=0;dashed=0;shape=mxgraph.bootstrap.rrect;rSize=5;strokeColor=#DFDFDF;html=1;whiteSpace=wrap;fillColor=#ffffff;fontColor=#000000;verticalAlign=bottom;align=left;spacing=20;spacingBottom=50;fontSize=14;" vertex="1" parent="Fpg7awucpTLVWwC--4ag-2">
          <mxGeometry x="45" y="430" width="250" height="350" as="geometry" />
        </mxCell>
        <mxCell id="cWzvO2JFx1QMmyimes1U-8" value="Image cap" style="html=1;shadow=0;dashed=0;shape=mxgraph.bootstrap.topButton;rSize=5;perimeter=none;whiteSpace=wrap;fillColor=#868E96;strokeColor=#DFDFDF;fontColor=#DEE2E6;resizeWidth=1;fontSize=18;" vertex="1" parent="cWzvO2JFx1QMmyimes1U-7">
          <mxGeometry width="250" height="180" relative="1" as="geometry" />
        </mxCell>
        <mxCell id="cWzvO2JFx1QMmyimes1U-9" value="&lt;b&gt;&lt;font style=&quot;font-size: 20px&quot;&gt;Card title&lt;/font&gt;&lt;/b&gt;&lt;br style=&quot;font-size: 14px&quot;&gt;&lt;br style=&quot;font-size: 14px&quot;&gt;Some quick example text to build on the card title and make up the bulk of the card&#39;s content." style="html=1;shadow=0;dashed=0;shape=mxgraph.bootstrap.rrect;rSize=5;strokeColor=#DFDFDF;html=1;whiteSpace=wrap;fillColor=#ffffff;fontColor=#000000;verticalAlign=bottom;align=left;spacing=20;spacingBottom=50;fontSize=14;" vertex="1" parent="Fpg7awucpTLVWwC--4ag-2">
          <mxGeometry x="315" y="430" width="250" height="350" as="geometry" />
        </mxCell>
        <mxCell id="cWzvO2JFx1QMmyimes1U-10" value="Image cap" style="html=1;shadow=0;dashed=0;shape=mxgraph.bootstrap.topButton;rSize=5;perimeter=none;whiteSpace=wrap;fillColor=#868E96;strokeColor=#DFDFDF;fontColor=#DEE2E6;resizeWidth=1;fontSize=18;" vertex="1" parent="cWzvO2JFx1QMmyimes1U-9">
          <mxGeometry width="250" height="180" relative="1" as="geometry" />
        </mxCell>
        <mxCell id="cWzvO2JFx1QMmyimes1U-11" value="&lt;b&gt;&lt;font style=&quot;font-size: 20px&quot;&gt;Card title&lt;/font&gt;&lt;/b&gt;&lt;br style=&quot;font-size: 14px&quot;&gt;&lt;br style=&quot;font-size: 14px&quot;&gt;Some quick example text to build on the card title and make up the bulk of the card&#39;s content." style="html=1;shadow=0;dashed=0;shape=mxgraph.bootstrap.rrect;rSize=5;strokeColor=#DFDFDF;html=1;whiteSpace=wrap;fillColor=#ffffff;fontColor=#000000;verticalAlign=bottom;align=left;spacing=20;spacingBottom=50;fontSize=14;" vertex="1" parent="Fpg7awucpTLVWwC--4ag-2">
          <mxGeometry x="585" y="430" width="250" height="350" as="geometry" />
        </mxCell>
        <mxCell id="cWzvO2JFx1QMmyimes1U-12" value="Image cap" style="html=1;shadow=0;dashed=0;shape=mxgraph.bootstrap.topButton;rSize=5;perimeter=none;whiteSpace=wrap;fillColor=#868E96;strokeColor=#DFDFDF;fontColor=#DEE2E6;resizeWidth=1;fontSize=18;" vertex="1" parent="cWzvO2JFx1QMmyimes1U-11">
          <mxGeometry width="250" height="180" relative="1" as="geometry" />
        </mxCell>
        <mxCell id="cWzvO2JFx1QMmyimes1U-13" value="&lt;b&gt;&lt;font style=&quot;font-size: 20px&quot;&gt;Card title&lt;/font&gt;&lt;/b&gt;&lt;br style=&quot;font-size: 14px&quot;&gt;&lt;br style=&quot;font-size: 14px&quot;&gt;Some quick example text to build on the card title and make up the bulk of the card&#39;s content." style="html=1;shadow=0;dashed=0;shape=mxgraph.bootstrap.rrect;rSize=5;strokeColor=#DFDFDF;html=1;whiteSpace=wrap;fillColor=#ffffff;fontColor=#000000;verticalAlign=bottom;align=left;spacing=20;spacingBottom=50;fontSize=14;" vertex="1" parent="Fpg7awucpTLVWwC--4ag-2">
          <mxGeometry x="855" y="430" width="250" height="350" as="geometry" />
        </mxCell>
        <mxCell id="cWzvO2JFx1QMmyimes1U-14" value="Image cap" style="html=1;shadow=0;dashed=0;shape=mxgraph.bootstrap.topButton;rSize=5;perimeter=none;whiteSpace=wrap;fillColor=#868E96;strokeColor=#DFDFDF;fontColor=#DEE2E6;resizeWidth=1;fontSize=18;" vertex="1" parent="cWzvO2JFx1QMmyimes1U-13">
          <mxGeometry width="250" height="180" relative="1" as="geometry" />
        </mxCell>
        <mxCell id="dXhP7P40RTugm0IDp4AB-0" value="" style="shape=image;verticalLabelPosition=bottom;labelBackgroundColor=#ffffff;verticalAlign=top;aspect=fixed;imageAspect=0;image=data:image/png,iVBORw0KGgoAAAANSUhEUgAAATkAAAE6CAYAAABtdSVfAAAACXBIWXMAABcRAAAXEQHKJvM/AAAgAElEQVR4nO194W8cyXVnzcHfKeWbNrZFieSQii8Q17Lj7Fm3ojZaw7B9WRqONjnfwaIOB62R3HkpHAQJpCgNRVFHQQiWusMFZ12SpXJGkvPCWXJhGAessKYO+nLIapfM+ixySGol7yb6Zkn/gPpQPa97qnuqqqu6q7qru98PoMQp9vTUdHX/6v3qvXqv4XkeQSAQiKrin+HIIhCIKgNJDoFAVBpIcggEotJAkkMgEJUGkhwCgag0kOQQCESlgSSHQCAqDSQ5BAJRaXwGh7dceNScGmM6TH9/AD8UD/a0rzwo+3d0Hf+3eX4XIWQUwuhHCSG7PI88IF5nHF7Yvrxa92vkEnDHg8N41JyiD9M4kBn92avQ26eEkFX4WUbSy46/b57v92AcvM449NGTBk9O+Ah5wX8N+utDZhxWv7o9h+NQEJDkHMSj5tQEkNsrBnq37hGyRAhZeq595UnlLpYl/H3HWqNjMOkRcjD4lBifdX73ogQX/zu8XieELNKJ5/D2HI5DjkCScwRgtU3CT5/JXnVGuEEtvGWPkNZvtufRqhDg/Y7VRseATjR9ETKL/U9iBEe6VlwEsddP6aTjEbL4Ilp3uQBJrmAAubUIIa/b6AkQXOS1R8hN8sxrfXYbpWyAu0Pnd3kNsugRcoJt5xJb8D9fpkbAe8203aRjj2RnF0hyBcGm5RagO7JdCRW2PfN/m6UP9ue26itjKbn5krThy9LIOOhYcRKZKj9H522z1LIb20IZawMYQlIc6PrMRVsE1wXn4esQHH3A6Oc/+GTIXwOsHe4OnadrbmtwHVITHO89vNeStovUM7s6OFPLcbANtOQKxKPmFHUInLDRA4FMDQmOdK2IALc90pj8/Nb8mntXyizuDp3vJx1nzBEC10FEUJZkKun53PBcdBzIxEsoYY0BSa5ggCf1TZO9UJCpcYJj5dZ1uk60d2u+ctLpg0F/3W0SLGgfMoIjIrIzJ1M7bV7PcU9Jg7Re2ppb1PuGCB6Q5BzAo+YUffDeMNUT1oqLPGAJBMccTz2Ak/1b80tOXzgNfDDoS9NFr9GNNYwQDRH/ntGbKrfiPM5x3eFYoVbd7+FaXSYgyaXEo+ZUP8RRjUPUO7umQ2Oi1iAYd1nlE0xJ1xQylWuNwO9UOrX2bc2XNoL/g8Hzo7D+eaTne7slU7ttjUgbDf0ZP7Y1h7soUgJJThNAbi0NQqKR76097StSqwi8rWuKuxq4yChTmbae3/1Qh31b5Ymv+3DQ95qGISE6BEdEZGdfprLzU9yyO32sjfI1DZDkNPCoOTUOC9ZpPKK36Yy8R7LrAPal/jxt/wzIVCHZgYSlpLE44PB63YednQqT5Fk0JIT97iWQqaK2m3QZ4WttlK86QJJThCEHwUMgOqEHM61sNSxTZQ/sU/LMl3+LAzvukN0aE+9GnsV2KpRTpva0wf/rpEHGv7aJ3ldVIMkpwLAHlK7XjYksOpDDH+uc0KJMjfzeIc3wd3+bGJWxgzvFydj1wfP94DGd8Bqkj+lf5//yy1ReG732Y1/bnKt8uI8JIMklAEhnzXDQ7sqe9pVx0R8fNadWgxguFViWqYxVKDzmNuzHXG7mYN2tD4ab58e9RieJQfgdn/HJhcSJhoh/d1CmitpOfn1zrjIecFtAkkuALuFo4Oie9hWux0zHcsxRppK4lcQ9hpAVSASwOmzQwvuHAd9iG2Ozs/QQmITgCCm9TOW3eeTk19tIdDIgyUnwqDlFww8+tHT623vaV8Z4fwBP6+OkExQkU3v6IHnwH3odK3gN/n9yYCc5HOUX+6fHOv1ujEF4Dk1QuZdHWuH/9ZCp0bbuB13/entukiC4QJKT4FFzatFWdhDAPlFSy0fNKUoKB3l/C+CATJWSHJ8AGqyVST22dO9oJM4QCC76GTKCI7WTqZEOwPW5+Y3NOdz7ygFu0JeDa2kZhHBdjklpzkVcphKOTJW/V96WYKElHiMjT6a9D5YCuKEepPsAR9tir5NkakIfetu8+DEGZKrsOIVr3dPm9bSd+NnwDMpWDpDk5JBaUgbQLzmF0HOm+oBFj5HLVOH508lUblvMiuP2swNuY++5G1Erk3e+JJkqbIvJVGk/RH3rORcD3mk5BM9ti5Nw9xgkOg4qUcgGgnSD9ZsAQY2DVG52WI+zjQyfIU2hFAHvQU0iu7hM1QH/fFGCE1tomjJVRtYJFp2KTOWdX4kkRYREDMhUtq2XBE/8dHiGfAula4hSkxzsEFgSbIWiMujio+YU3WkwkaKgyy5D3TSKisjU3jaUqeJ+cV4kHEeJbvVbGF7io7RyFcIsfq6w15OS3VoKy8y5iHKUqcx7UaYmkfqbPx3GJJykrCQHFpzODgS6sL0Kgb1KyKmUXwopjTJV9nnxY3jHVlSm8o57853hC7adZ86jrJZcGjO8L8X71lN8jg5kJBexPFGmMkCZmvheBsvvDF/IY33ZWZSO5ECmpk1HdETHmgPnhU3Izh/emChTmfeiTFUida/7XfqA6JxcY84DZbTksprfsti0OGzm71qRBAL39xI5ylTZ58WP4R1bI5kavwf2evYnbGdRRpLTscR4UDbdgYRuZvw8EWQEGhIxylQGKFMT3yvBweXhC7X0ttYxGFiXJCchtY1JXBdtzgf4MU4oU5n3okzVlamxNkrq3om3m/XzuNaR5LS8ppD3zeSNsQ7p07kAzzGz0wJlquzz4sfwjq2xTOX19823mzO1ckSUkeSyhnZoh21AMZqTGT+XJCXMBPgEiDKVAcrUxPfKAFYce8Ty3zVnauOIKCPJZV1AVaqeFQcUojkKKczTYCWJ4GB72hGUqcx7UaaakKnx9r0pw7BKiVKmWnrUnHqQMoxEmMNN47N3wTrdpGK24NtQrUtKzmy1LtaKi1hO5UmhZE6mYgql5L5IZKqA5ILjT3+nfanyFcDKSnJpqlpR58GoqZ0MQEpBYoB++NkLpEZ0EwQ8ak5RC/OVuEztEhJDIBpWnPSBTWHFiQmlS3LhsRxCiiT4lMjUGmf6jbZx1iQzWnHssX6tiO+0L1W6VkRpk2ZqFpd5ClLRycEMKnR1R4IhgqDJjUy/AhKxYMXVO9NvZitORHAkdjyt/vUH7UuVdkSU1ruqsUZ2Gyw4pwmu24LeVNnnxY/hHZtEcKLzC68Xr413Lje9qbG/91y8g28NXxB6+6uASqQ/N5VPDnYaBHF0D2xu0ge5uxQWZfFbUaaiTO39zvIxTSVTu23dpuePb1ZTtta+xgPjSODtiX0IRLSYEPah+5mRPHjdEUCZijI1N5ka+17e+qubc5WUrbUmOSCbZQUvaWLle8XP64c4uEiFfNaKixKSnOB6joe+ep1YwtVIpSuC3tSg35pWHB37B16DrHr0enr+Nd0bOa483tRoW6Q//ntmX92cq5x0rS3JpfDQpnZegJyeCKQpC5bgCHtT68tUGofX6t+a7+nfztB0h1yfdcg1K8GFfai2TPWv54vbvVXqVwdn6MQx6QWTVbllakBwwXH7/nDzknMJY7OgliQHEvVBiqr4D8GJwZWuzJreKKRPH5MVpu5e+cwy9WT/1nxicOfOwPS415HJ3epYEoIjggetBjL15IvbyanD3xucGSeN7vXUtuK8WFsxMpX5mz8J3P6jzUuVSrRZ12pdrRQER0CmyIr4BtbhG7S+hFrl/czeVCWCoxjYmV/WSVXFm/5q4E1VIjiKl7bnwuuZSqaybfl5UwXXM7Ryj/zt8IVKbeKvK8llGUTZe5WlbFymhm16e1OvqxJcgMEdX87OEsmDRAQkIulHt433sEpkqg939qZeVyW4AC9tza15hMwqEmjPi8TjFGBIprJY/JsKJdmsHclBQZs0VlyAvSB3e6C6XidZB+q2JctUWn0+1SLx4M58y+u8X9qveFvF96Y+lWWHScCi/34OwRe0N1XhfNL39GW4Fs6hjpaciRnKgKs9s0xd7t+azxLWIrRYaipTl1/cnkt1PX9va+4JrM2F5y+hTI334fW/rkhtCKygnzMMyVSSrtJX5Fyrsdc9n1EjmUoMZLdZFfaL88JRmRrvQyU276cmORqCAT91rASUysVuSKYGv2eNTg+tlprL1ABZwyai17OcMjXeduSvK1DSUJvkKKlBqqOfw8+Hj5pTa6J1KtcAKY+ypDN/mFCAJgGZZao11FSmGkNFZGq8rfR557RIDohslbP96WAO5ftMIlXiTIBs0IWznkGZKmxLA5SpITIpEo9TO6TEMpXF3h+VPKRE15KbkHgmD0JkfxnQSmnNPU1Yp+CSnGGZagwoUyOfm1WWjVVIpkY+jz4vPypxSIkuySXdCKVYnwO5KQvqFWFcstthl7ymqzmZmg/Z1U6mvrI6NJOq3OW7zZl+f4tXtWQq25YUBO80dEkuaXG2NHveIB/dSUWLjh5zNCGF+TjPykWZysD9gjRp158i1n1FZGock/9zpJzWnC7JydaynpZsXS4gulEoIM0jO9p2ne5HlREcWHE9wZOuylQeaixT2QOOrA7OaBHdu80ZulH/lYrKVLbvfV5JrTntDfq9mWxDnATSKC0gM0mAJxr1GehM/nq8nbXiIpaTmYI0R/dtzaeeVDYHpukaUpiFpft5WJDGI+QmfaBfkgQH32rO7PIIWZTKVMaKKziFUlqZ2mnrjg+d9Pu/t3HJWG7FPPAZ3c/Y074yAUVXJmD3AJWoS0nVqMqANN8Bak1ICS7SZrBuahagTBVbj5BCafy9oRk6eS29tDUXLsPcavrrduNg1eyNvzf+ogIylT2+D9bmSrXlK9dUS4GlZJMQ4TNasQwgNDfYpOl05hAIvRpfi+te0a4VF7aZy/R7dH8GS25jYNrPmCKTqUasuOpk+r1NGt17yhMfF7cKXUmhpNiHWFvv+Dz1SKP/xMZsaaw5bUtOF7xsuI+aUwTWwSYNpxUXVfCiySr9HRqmCtpAuMySOKTGrjfV9NSEBWmYNh5xqRJc7Fwl9abKzlc6a87q3lWwdNYEa3i07YGpbWGw+C+LYeszUTWcfg6swb1dhDeVdzOmBcrUhOPSEGg1ZWq8rVTBwdYsOWZ3hCytUR94bFPFJ8XADeGIgQYspy5PCJZiS1S9P83s6JEGldI0J9lasP9R6cF/lnmD/hqUdFT1pu4ipDEK3uieNO497y3Om7oCE+sD2IUQxC/u7ekHj5B4p+V5TtN5U2n9jWUYZ7p0QuPrRj3SiFzPJJkqazPoTeUcF04qe5dGLk5MbMyWwtFoU67KdkewoPnZJgx4ZlWJUjnWB4h6DH4Uv4+yTL3pkUbr81vzhcQWHtjx0zTprun5IUT/MHB+l9fwJcvF4A8OyFTqEW0d3p7jXc/J/zM4E1ZI05Spam2xc8W+IyW31jc3+Qk53+nsJqCT5+sOy9RoQ8PvbylIzprj4VFzalUt/bePm9Rrm/HzWuxDJ4EwqBf6vAtmWtW++4jL1PDm4RekOfm5rXKH21CsD573q53RGKqgLbDiZDJVZsVxyS72R84DfPKrChl9bw/5YR/L/tgyVlx4roa8jcSIL9IWswqZ77zuETL2zc3kXHXvDF+gYT3LHiF9JmRq0sTR8/2ZvkusuO7398jRkxuzzkdVuJJPzoRcVZVvMsvpCCQbSEFw0deS2bESBEdxcPvyKruVrSCZqkRwFEe2fKIZJx5Z7/kMOzKVfo4SwVH8/uYlWvZwwmGZ2m3z/ONK4XxwheQye1j3tK8sw00lw81saZJkUJKpK1UhuABAdNcLkqkrqgQXYCwgOvZc9mTqxDcUCS7A+OalZdhlEzu3MzKVdQAd+cuRiyYMFKuwSXI66YyypD5iMQFlA3lYV6i0pY24TCUcmcqgtJucE9CZ0fP3pqa6nmPbcw9gV0NPH7StTE943Mo3NntrtioijBJII1OT+i+D9PvyJzLnrTmbJLeksfndCMmB15R6/07TJRj4WYEtZ8J6qQDtB0Zzdlz/3JbZYGRXMLp1+Ql55l9n3vcOXxuWqetf5TsZVNG55+x5U1Nb7N9u+9/rtsMylcX4X4xcdHrjvjXvKiUUCLl4W3JYUJXeWEAwnGtRJz897JI4mO4Tlb2ppd/2loA1TxBaYsmbmul6Ht2eW35vaCZyboMylXjZ09P7jjtHZSp7vj6Q/84uw1hdk4N1sufBoorjNhCckR0IaQFhItoDpClTiYl1R5eRs0ylr41dT8My1W/75mYmK7MMMpVtc3oZxrrjgZLYnvYVaintg+BT+rOPthVNcIBFUXCvCGlmR5VUQFVAESmUjMFc0C/56fCMUQnnoExlz3fwz0cuOpsw1/re1QDg1XRqTQq2lKVM2a69N7X0VY8S0FvjwO7e1EzX872hmVHCPqjmZGpw3GgWSU03wfe0uSVT45gkjm73qnXdVbAkx3TqPaSQqQGOPByaLm2efAWM57w39cidwUzW0rgNmcqeP0PfSDzMxVGZGunv/3DUAVH74tI6RJdFpsJxlQwh+WDw/CS764HkJFPTrgW9N+STY/e9BmUqc8hEWsn6k+aFyWALoeMylW2jmYOdLGSVaz45mwAP6SizN9Xfm6mR3VeUpikEa8VFpJZ6pt+ndItP/9a8C2uRRvDB4Pl+37Ma39olkKYkfu2C32NPjmKGEf96vritF4/23tDMEk2MqS1TGStOMYXSyr/anNN68H/SvNAPu3dCkrOY6Zc5Lrb8wsjUpLFjPmfl1Masc0RXapIDz+gk/Ig2zz8E7+liUqgKZDzmh0H4/yrvTYVjuHsI/bCZKhDdB4Pn/UwzXiMafmNhb6rs4aXjS4lOab33vaGZCY+QN+OSLNIFvb2pCQ9+4+bvb15SWqv6SfNCkLnnYPj+YvempiHSfac2Zp1aey+tXIWklQ9gU74sO8heOOZBrIYDDxM82WpAprK/076ufjw0XZYatVx80Nmcv6ZDcNI2PZnKgo7v2u2hGen1pBL1vaGZ5Yi1bkemhq/hu5x4Z/jC8jsJdUv/rulnSXnAElz0fM7K1J61OU7XCoV1Sw72hI5zvvwy1IbQjndSkZYSSAvu8LKZGJCpIulGt5pR6bSWJZV5XviweX6MPPNzoE0ESQwcK0izTjzfal8b255b/fmgXw91lDTC+69PKknNyVRejJu/s8fPMuJ5a3RXw9sdYvOvp0caR3rOUR6ZymL91MasU+EkVklOIf0RHfjWnvYVnd0J4wm7KFTwvGitDiTw4+C1QZna00biN8kzhWO6bUeHd9IT40dQ4yFSh4IT4xb5Pf8USvrWicc5riFvC/83K1O5/S5JCqX0RNr52fd9hySrNbkKpQuT8rtR6fYGHKtyzlS7EzgQ7pUFy9Lfh6kzO3aPEd+IcUTa9QjOENQCbQvO9Cs/X6P3gMhx9vamcvukS3DJ50vznhQEF7RlJDiAU5LVCsmBBcer6yDCCZCgSZA5GHSwN+HzGBLUDvqNtfF/j/z9GecP1hGzTgVWXAUL0qi1xc5VwYI00Qb1oF8p4HingoKNkxzj8dTFIrxXBpMXT9bH1c5gpQr6TT/bahxjypqTEVyI+hakoZlATjPbEenPSY+/F1sIUzI1qf9JfRC26QX9qlzjg/99pOVMnjkb27pUazvEIc1mAFuwtPaYJoAWtennJdGkbf/UKZvoo3oyVQ01lqk0LGXi6+050Zrn0k+H/W1hS5FwD5SpgAb9zuM6mYBswoZczbKnUOaVseGxkcw2jd4U2Y7I1DysuBrLVDruoxKC8/GtTkJMeq+voExljw/P74xktUFyWfavyYgsb/M3DG1BmSr4u6q1GrS5L1MfEo+Mfb2tlrL8W53U5hOitPs1lKmdNs//Bgf/bNiNvay137sqg8sy1aZ0rbFMnVAluACU6DzSiKzv1lymsg1OeFltkFyW+BjZVqdct0F5rOVYMZlKJFZcnWVqkkQVgVbZChLDokyNjH9lSS5L5L7svTZITnbOva7KVNNWHMpU/0XWOiPh+2suU1k4kUPRBskt6+RnY/AQ0qVzAV5QUSWuNLgt2lL2j83pUZSpTFvsdQVlKjEwia6hTO05pu+/DV8snOiMkxwQRxrPisp7TJY/k+2c6AyMwzLVVFpwlKkhMtWMQJkqGP9G8dacFccDWGQnNd5CN80nylzYWJ9UQFoFt2Wb9P0N6O7L1MyeK5SpEasw+/UUWHE1lKmd9s7nVZPkSJeQvp0gMenfjsoIhwNuOiQNPJVZjZ82p/vZ8oQuylS/D8+8rDdP+H7cm+oj0/WkyTtRpnL7f+S/jrQKDSWxXpJwT/tKP5DdLGx8X4HfKbn1q1hwsXNq12VgENR5lXmAW87L1E7/MnmuvE76IZSpXcsqqyeQO3HWWKayKNSaK21mYNjmtaRRFJq6+CdkBOdbcc+8j4PXBaVQEn5G2IeAhAk5/YWP57W3zqwNnQ/TVWEKpch3PvmNzTntLDfLwxfGPc+LpP9KI1O17yum71IrLvj+2VMoMWj0yNTYtWT7cf0HG63C6puUNhgY6rmOwtqfbMP0CliNSRYcYZ0RDstU9s+tX+yf1trutt5JWe5/T5SpPZ+1+LPOnlRlLA9f2OV53lLPZyR8xxrIVLYfhSbRrEwhG9ItZhNCRwp/2pymMtXPf5ch02/42m97pnAM5zz8GT1KcIxV4Evwf34/uWYEJTiv0akhEH5HiRXnQKbf2Ll6iUu7jTln3LKCtnXqeIK9qVKsDF/oh0y/B2Pn0LLiUpMPd3xik3H2TL+xNjg/Y8UJ7x/mu/1go2UmHCAFKkVyafFpc5p6U8N06iWQqfF+PvUapPXbO2Lpuj54fsJr+Fkh+sL3okwVZfr1M1Z/a3NOeD1Xhi/QgjiLnudFSzFqEhwRXcvY56Wy4oqXqSyO/mCjVUiK/9qTnE9wtF5EgrMhyZoh8Rs0pUzlk4jQiuu2+a8bTyEYmwam0iIz/SAVxv0dHGxMXKx/ujI1yYrjXTelc7DEFCckktGKi1uFHCkb6+9T31IjjTUIFvavp9cpTL1XJNm4ln/4vdhxzGbFSQmOdK24LARHIu1dmSofO+73mn19o2UyzlUZNvLJlQ2TJfGmhscICI6AlXbCrynKPQa9qUR0DfnH9XmkcYLNcp1kEqA3VYjC1uVqn4Xks+35UQhpEULl4Uyy0JKOSSJPUTv3YRUQXIh6B/3Kj1OA//kY9Nttl8vU4FxIckXis9tXWl7Dj+ULY+8c9aYKZky1NV30pnI+S9AnIWkJCC75fGneozoROOdN5R23942CUqIjyQE+t+VvRRvrrMOUTqYmHIMylYiujwbByYAyVX4ueE8hJFf6NTkICh6Dn/j2kQeev2DcWH6uPZ+Y5+5zW1fWPhnyw1A+JBlNfdVjtC3FoA1lqrhfnBeqRCuDyIpDmSonb6Z9LGMqtlQo846HCai4JdzxEJuNaOWlxd9szyfmDfvV0DQND+iGlHDPGSOqYrypCsegN5WIro+GFSciOBI7Pn59a+xN7f2cBlk5fa+VeyLN0pGcznauzjeLPnx+Obln3sRnt+W7Hx4OTVMyfEVmaYUDmE/Qb7ctjUzFoN/kvggILvxbRisuC8GRWLurQb/xc8VI+OHpe/mvy5VqTQ6st1Vdgou0PfOO0JinTwenkmaUiagjovf8qR5qzrGiaYbXjjJV0i/Oi8TjFGCC4Ez0QdjmvkwNSNhkSVFllIbkgODeVKnpqjCAfV6DvP3JkLiK/t6t+SeeIEln5FzoTU3uh6hvPedigN7UsO+9x5XCm8qeLsSfjrRyz0hSCpKDPalvKhzKgLNG1Bv0u/jJ0JQwfqd/y98m9VB4g6I3lXt+VeuJS0gEvalJ54vAbW9qt61LwihX43jUnNrFFglJQudCcmUq753UKlz+1dC0MKmfF0uTrjITyo7hkQjnM3vbUKaK+8V5oUq0MoisOJSpcvKOW+SxS4gkx8GiikQlKWdHjzT2gpdWhG76JfYAlKnJ/RD1redcDFCmhn3vPa68MpWZ5HPf+eA0yT1qTvWz+wbVoCRT4ZiwYfKhwJrbt+XH193uvgdlquj8qtYTl5AIytSk80VQPpkaIPdU6K5bcspVvzoXUlmmxo/rS/isVZWZUHYMj0Q4/ehtQ5kq7hfnhSrRyiCy4lCmysk7bpH33jc+jnA+wipcJzmlwME0syMneFX4WR4bpY0yNbkfor71nIsBytSw773HVUKmFgZnSQ4cDqr1G9LKVKZNOsOsdaxC9d7Ezs1pQ5kavkSZKj1fBOWVqeGx13IOI3HZklNaoOxcyNQyNYIHQ/x6Cfu35p/I3iebLXkkktQPInpYUab2tvGsQsl7ZRBZcShT5eQdt8gFMrUwlDoLSZrZMSGFknhR9Fln94OJBxNlKgOUqWHfe4+rlkxl2nINI6lAqqXMMpX7OweJhU1k5470AWVqD3F5um2xc6FMVYPHnjB2jiQVwPtsFRLm9BNJTgWdi2ZGporaYjiiM1uqkGei5ZNAcCFQpia+VwaRFYcyVU7ecYtcRaby+mEbpSS5NLOjYqbfJ71NGp+Z8D6UqQxQpoZ97z2usjI1ADoeAAny0LxM3bfFr126MyDe9sWD6IZBmdpLXJ5uW+xcKFPV4LEnjJ0jSQXwPluFhHn95E1ctuEsye1pX6FW1Xq8vXPRrMhUYRX++FYU2WyZYCmK+4EyVdwvzgtVopVBZMWhTJWTd9wid1WmBnBdrkY25qeZHTUK0siSAITmdZoHE2UqA5SpYd97j6u8TO2QYs5bu1wnuaXeJive1Kf8zwpBCfAoIeQ0IeQmTb/EO0h0w6BM7SUuT7ctdi6UqWrw2BPGzpGkAnifrULCvH7Gxl8jyD87nE9//qg5RbOQvN7pZYwISFSm6lhxsW89u29rXqu6d3vADxye9CCBgMhSZEku/Gz2IQ5/7/ZVJlMDK052g8qsOO61iP3RiEz1OMc15G3h/7y2mFXII/usVpyuTFW4r9JZccH3z2jFRdsaPTKVfy31ZWqSFcd+r8KAXxYAAB7ASURBVOD3c/daua3MlcG72vKYNOREcXbUkKk0KeaibqeaO/NrzZ15uql/HyFkhfcZKFMZoEwN+y4luKCtmjK1EDhPcuCAGLcoU8fj27Z0MLwz/2B4Z34cpGy0DyhTe4jL022LnQtlqho89oSxc0TGvwBvat5kV4o4uefaV2gWkJPBa/8imQn6nRSFjehiZGd+0WP6mNgP9KY+hDKRt8Gz/ZA9Lt4BVaKVQWTFoTdVTt49FlnCpMjrB9e6ywmlKkn4j02/HmonU3CCFSew3ILffQtu39a88UK39wZoHxtv1rxu6kMo7L1KGoQmHaU/T17amlOeUP738Mwo8XwvHN0C1E/DeLyG/3u4aK1jxYkIjsSOj19frJvaS8JsH2X3R2DFxY+hP1M5rsk5RXLUybCnfUWWipx82pzuJ8+8JX+blUSmSgaBWg0TkPHXCn65b9p3lgSfaUSmul039Tbx/Jx79GdtbHsutfxXwc+GZ8Y8QsYgfnEsSI8vIrjwb1g3tadPSd8tiYRFz1lAcPFjgt/rTHK0Myf3tK/Iwjl8fDo4NeE1/Gy+YR64BK8XJbeWqvW27VtkZBxieo4AOfrWyfDOfGL/frlvmh7r15msoDd13c+W3CDLR7bmjFvDuvgptfo6YzXukUYkPEFmxaE3VZ/giOC7iyw/rnWHJEee0ln6ufYVJWnzyZBfB4Le3KMga0J4HZnkWxj9ipbbdic0ZJkSlOTBX/cImRjZEa/n/XKfT5JvVkimrkPlsuUXt+esWcFZ8c7whX7I8kyv/0ERwZEYycWvL8rUKFkRYkamBqg7yZFOyEhj7Lm2GaeAKoDgVv3i08k3E13XG5MR3S/2T1MyCKuGl1Cm+kHSlNz+5bb6eporWBm+QCe9Sc/zxiPjoGnFZSE40jMm9ZapAWpNcp3e+N/fdw481zbvHOBhe2C6H5ICqBBc8DvtY/+BHX4Iyi/2M2tz5ZKpVJovHd6eS5TlZcHbzZlxCN4+gjJVn+BI0r0VJ27O31nkSXJOhZDELgQlm59/2pyWOiIMopVEcJy2PiIPJI7th1Ub1wKDfumWtecPb8+NVYngKL7dnlv+dntuDIK3bwbtvdfQi73uhRGCC9pqEPTL+855wilL7p+aU6uENHxHQuQCPvOoZTH52W21dTpdbHdSKT0mCTcTf4AbT39r57Jww/Ev9k97jsvUp0DGra86vNZmGj9pXtgFlt2k1+gWL0eZysCCTA3Od36jttu6OO7/TrwZJb4PPxmaWgJHg2mMEsmNRAQ3IqDvl/umhUkAvUZ0M7+M4ELkE/RLyW2Wyu2vbs9N1IngKL7TvvTkO+1LLYi9m+04vKIylYWuKSC1ADHol5vgwhY+k+eHqUIyO9LN8Cc+GZq67ZGG7+n7fIYtWQzGNGUq/N67N5WDB4Q09iYdRPKVqTfrZrmJcHzzEr1/Wj8enqHLDnRp5CJBmdrzd1MyFb5PrvedcyQXuTDiXQ1HwLp78+HQ9DrURX0A6cvX4ByBdTXqdX4eDGzNp0q7LLphVLaWObY3lSYSmPwXSG49eHXTD2Bu/a/hC9Sb3IIJ1YeuTI0eF2usyd5U1fPlAddIbjUsGKO+N/VgfKtP/BhoEz7YNMDXgxk8fh6JTE1sB/SH/ShOptKJYPKF7cuFB+66jj/cvETvk4m/Hb6wBBlwZEXHe4AyVQ74u9UdMXE4RXIqs6NGCqWYVSi+Wb1YPQlNmfr0Cx9Lw1wSpapFmfqUeKT1wvZl7VRSdccfbV6iYzr2N8MXuvulmWuMMrX7Hg2ZGiDXmEvXspB0rC2DdVM7VmHn950BfoX8ZifO7Wa8XUWmepK06R8NnB8LzlOATL1JPNKPBJcN/3rz0hJY49cJytToa8dlagDX4uQemKqbKpgJZWtyLdhS1nM+iaX4FBarRRgvQKY+9Dxy9IWtyxMvbF/OVRZUFd/dvPTku5uX6Dg/zyuuRFCmqsrUAGjJEbMylW0TElJzZ55uqB8nnCzEkT4wMpXKmS98LPXujkv+ZkOmzv5u+3L/C1u49mYD3928tPZvNi+NBiEnBGWq9NwcmRocl+vk61w+uU8Hp7yUKZQir1mZGjvm6OCOeA1tc2B6FCTo3ujnRQjO36D/hY/F+1Y/Gjgv2aBvPOiXWhcTv9u+XLr9pWXFj+i+2AZZCh1lAAz6hTbBZn6KmRwDgYmjcXLromo+WUx9BoskVkeVxXBnw33/BqRagvWYg9Avamku/9bHyamWaBhCTjKVWm9aRXgQ2fFvO17Ysb8auTAZbAnsGRuUqbw+PBUcag3OWXKfDE1RK+qV4LVipt/I76wVJxjo2eaOXnUuHXw0cJ6mQn/dcgol33r7ClpvheOvRi6MdrK1NA4mWUgkhUxlrTjXUyix5xN8x9sXN1qp4lXTwsUaD+FDm9WbKsHF9sC0dL0sLUCmyglO0v/4MYLvTT19Y0hwbuB7G5fWvrcRrtV1gN5UEXK/Z50muQCGZGr8mKW2IKQkLT4aOD8uW4cLkV6mUu/v0a+0L09+pY2eU9dwYmO25RchbwiK8gjaaiJTgzYkueAiGPKmRo6JtdG0Sh9uDkxPZO4xWHA0bZnsmIzeVLolq/8rbfScuoyJjdlVfyuhR1ayytQuSu9NZdtyJzknq3X9aqibUVc2COzruEzVXPPw93SO7OgXt/lo4Hw/ODNe8QSkxf6f0pt6+nfaGNRbNvzlyMUJuDf6RBZQMimU35vKHn8xZ88qcbjuKlhzvTAgUyPHwP/U0bF2b2B68V4nQ3AiPhqY7v9oYJp6WT9OIrgQ+jKVyp7nkeDKiX+3MbsEiSL8AOKay1QCGadzh6uWHE1m+EbwWmTFRS68ukxVmMEa6+SZtwohI2sMgY1CSMm416CWpkaGEX1vKpU7E7+Da2+lx1+MXNwF+18TM5uQSHslvKns69nWRiv3cCdXSY4WIKEWkm2Zymnr2ZsqIC/NFEp6MvX0l9F6qxz+PCZf6yRT4f/nWxstXJML8BDW5VQuYBorTmwddkmOZ3VZLkhD5en4lzE0pLL485GLdEcNzVnHrQ/bRTkK0mhYcU9bGy1hmQCbcHVNjkDtUy4i7SllKq+NlwiTH3+ktnaq6U2lzo9RJLhq499vzK5BoghhMZ2KeVOD34XZemzDyfTnpHNhVsNyfvy/qwT9is7NabMkU0U3XvQYlKc1wqmNWbrOOnFj5CK9x98kHJlKRIRUshRKzDGFhT45a8n1b80vs6mPAqhYaGlkqux8hEdmCTLVR7I31Q/uRYKrJ05tzFLZ+rwXK+xSIW8q216YJeeyXCVxE7diMpVmMun/Mgb31hqvbcyugdd+paIyleLm7EarsCgBp0nO4xRurohMvf6l9mW6/obhIQjy/Y3ZJ9/fmB0P9r5WTKYWasURl72rAT5mvKxhT8vrTaVpZiYObV0udNAR7uLPhi+OgYLp496P5fGmBv8/nN1o2aiVrAzX5SqBikldlFem0qj3MSQ4hAx/vAl7Xzlp1ksoUykScy/aRhlIruuAKK9MvQkEh+EhiET88ebsgz/ZnKXrdNdLLlMJ4Sw55Q3nSW7f1vyT+NqcCZkqOx/hkVmCTPXBl6knD21dphIV198QWviTzVmadfhkZ5IvnTeVFO1wCFAGS474s8EzKBwS+4PDMtXfXH9o63Lh5jqivPgPfphJYywuX0sgUwmkhS8cpSC5gS2/Ipa22VugTPV3L6A8RZjAf+zs9xyL1wZ2XKZSK047dZkNOO9dDbAzML3L62QFkVcyj/1PegbAqjeVWputL2JBZ4Ql/JeRll/R32O8rz7c8aYSeA5GXSG5sshVMtCpch+avw7KVN97igSHsIkfbLSWIHi4K1/dk6mLrhAcKZMlF2B7YJqa7gd1rTjLKZSugwWHzgVEbnhjxM/NdtGBFErs74XHxcVRGkuOwYRD3lQa2vLtL25fnkSCQ+SN0zQBZYMc9bzY3ldOP3LyplIYqZliEqUjucGdeZqqZpZtK0im+oVlvriNwb2I4nD6XisIHqZqomiZen12o+XcXuzSydUA7YHpsAh1zjLV35r1fBvJDeEW/nSkRUNNlthksyQ/mbo+u9EyWuLTFMooVwNQs3g9Z5lKZ8t+JDiEi/hPHSsqUuQ6J5n6EEJcnERpLTmKzYHpXZCM7yCf7IxZcbTK0OQoxr0hSoJrI61+sOqOBFYc17pj21LIVK8TLjI2W0DtBlWUmuQIEB1kEfZz5huWqQ+9BmmN4q4FRElxdaQ1RhpRCWtQptIwlgmXCY5UgeQoNjoWHQ2QZEq+ZQr6peZ36+A2khuiGlg40JqAjD6Rou0BUgT9rgDBOR9VUAmSC3BvYHq8Q3aNvSmtODpwSwfRY4qoKP7zAd85MRk47Yg+wVEDYLK10SrNM1Ipkgvwy33TdNYal1e2DxtpEedVr0GWD25fdiZKG4GwiSsH/PKA455HxqF6WF+CTKXSdLHV2XFRKlSS5Fj8v33TY17Dr3rvR2ED4a0S0njy2zvoSEAgKOZG/PCPXYGXFAiOSlH6jKxdLIEsFaHyJIdAIOqNMsfJIRAIRCKQ5BAIRKWBJIdAICoNJDkEAlFpIMkhEIhKA0kOgUBUGkhyCASi0kCSQyAQlQaSHAKBqDSQ5BAIRKWBJIdAICoNJDkEAlFpIMkhEIhKA0kOgUBUGkhyCASi0kCSQyAQlcZnqvjlFg60zho+5d1z91q3TJxo4UDrECHkmIlzxXD/3L3WWxbOG2LhQOs4IWS/wVOavK7OjrkuLHyXtLhx7l7rsSN9SY3KZQaGB/HHhk9LCWTA1MkWDrTetUB09GYcsHVTLhxo7SaE7BBCdhs65X1CyJdM9LcMY66DhQMtFx/Ku4QQOok+PnevdcOB/iijinL1lIVz7ocHyRTOWegjJZ8FC+cNsGCQ4CiuGiTkMox52XEI7oEfUhKmE7VDFqcUlSI5i1KQmHyQzt1r0VnRxmx4auFAy6Sc9AHX1SSR3DJlDZRlzCsIes0XgPAWwNJ3ElWz5GzelMfggTKFcyAxTeOHFs5p2kI0acmWacyrCmrR/ZqSnYvfrzIkBzOJ7ZnXpDVHCe6qqfMxOGZSZi0caJ0ybCndAEs2M8o25jXA2YUDLUp2tizrVKiSJZfHzXjKpFl+7l7rKizomobJGdXkusvjEllx4We4LMUcBL1W77pk1VWJ5PJaBDX9YNlwQuw3sSgM5zC5xmfS2UBKPOZ1ALXqTHu8U6ESJAeSKq/Z1ugND7FYNpwQZ7NYIODAMEki98FyNYIyj3mNcBzCpQpFVSy5PF39++EBM4mrFpwQWUNKzhomkdcMnotUYMzrgmNFS9fSkxwscua90Gn0ATt3r3XfkhPiVBrvIFxTkw/1DZO7B6ow5jXD2SIniSpYckXcfMdMe5BAyt03eU5AmlnU5Mxrw4tciTGvGRZsxHCqoNQkBxetqBnCxoNmwwmhFVICM67J2LCrYKkaQQXHvC7YnaOjKIKyW3JF3nTGdxfABnsbm+yVLDNwVDjrbABUasxrhkKuX2lJzsIDmQZlseZUQ0pOGQ4ZMfpdKjzmdULu41dmS+54jiEEImQK0+ABpJ0NopP2FWZYk2txtyykfqrkmNcMuQdXlzmfnAsZEHbDg2c6zu2GBasqCCkRhXKYdvObDhkhFR9zm6De7cTxYLbJ2fZe53r9SmnJgZfLlbUR4w+exX2t3JASuJ4mZZhRZwOpwZi7AHrf0TXUc/daLxNCXrbk7Sd5h/+UVa66dJPttxFaAKmIbGSm5VlsJjOX2CLoyo+5S4C4xpctZcpBkpMB1o5cu8FsPYC2QkrCEAz43aizwXR24pqNuTOwuD68O891uTJaci7eXMdsuMYhJZE1qwhuNJNrcXctpcauzZi7BhhPG7I1t2tXKpKDh9LU2pHp7Ly2HkQb+1qDkBLT+1ONz/o1HXPXYGPZBElOAJOZJ0wH3h63YYKD9LMSUmL4ITW6P5VB7cbcQdiw5FCuCmBqO89j5qE0lbTSWpZakAymk2uavMlsORtIXcfcMZS6LGFpSM5wzc+3mMVxkzO7zRvehjVnCsZDRgiOuUsotbVaJkvO5M3E3uQm12islbGzmFwzK2zsTw1Q6zF3CKV2sJSC5AyXnbvPrh3B7F6Wmd2GEyIrrFiYOOZOwUb4jq1A4x6UxZIzmsBRsS0trJWxs5hcMy1s7E8NgGPuACzEUQZAkgtgoexcz80Ns7zJi25tZreYXDMNbOxPxTF3BBaSNgR4bGMNV4QyWHJG12Uk0fgmZ3bbmRaskIsmrDgbADjmBQO2rb1ryelgowynEGUgOZOxXDJpZVp22bTmbllKrqkKmyEjBMe8GFCSpkHiUGHrXYsOBxvxlEI0PM/L8/O0AOsBpjaP08XnAdkBUCfSlKeMmuS/YehcPQApsWPr/Al4zdL2LRzzTp/cfSjN4EuwZTEXuG7J2V58jsPkzL7bZoUii5unk2Brf2oAHPNq41aeBEdcJjlYEzDpsUq8mcFTaDJEw/YNb2vztAzWiBXHvBbIfZnFZUvO5M1yS2OR3KSVcshm3jGLyTVFsLU/NQCOebVhWwVw4STJwXqTyShyndnD9CBYndktJteMw1aiAB845rVAIVsTnXQ8LBxoLVQsjc2AzbignJwQ5yxu38IxZ1BRxwMNOSqE5Jyz5CwEgroA29ac7Z0QNven4phXH3eLIjjiqFw1mT/MFeQRKGpzX6vt4GMc8+riPtSKKAyuklzVYDK7LRcWk2u+ZdnZQHDMKwsaKvKy6ZofunCK5BwrO2caeaw32Vj3s0pwOOaVxS0guML3WbtmyVX5pqh8GbuUwDGvHuiOmMItuADOkJyjZedMo84zew9wzCuHt8Cr7FRyV5csuTrcDLUoY6cBHPNqwWZmmtRwguQMl51zHWjN4ZhXFaYSKxiFK5ZcFUMIRKhLGbsk4JhXD4cgqNspuERydUFdytglAcc8P9yF8KL4j41sIGddSwX/maI7YDGHvMs45VithlyBY5477vJ2rCwc8DOwvG/BoqY5+qR5/PKEC5ZcHQMm99c87xiOuQOwuB1wv0uytVCSgxiiusaO1TIaHsfcLYCFZyPH21lXYgSLtuTqvO3lWE0DRXHM3cM5S/uef+iCw6WwNTmIHTJtvr9lsRLQbguhAMfzLupRJHDMfTg35lS2Lhzws4SYDgHZD9evsAwkpGDHg40Z/TWbW0kWDrSOG14wp5kqnAygtAQcc0fHnO5SACvT9BhR2XrXYhHyRBQiV8GENT1DyuprmoKN7Sq1kG845hG4Oua2ZOtCkbK1qDW54xbc1nnsl7PxGXWJhscx78LJMbdYAc5WJX4lFEVyptdl7ueQ8yzI2Wba7K5LGTsc8y6cHXPYXG9DWp4C6Z87cic5C2XnSE4zegArN4CFczoDHHMuXB7zSnlbi7DkbAxubouasIBqetG46mXscMx74eyYg2y1kfJ+dxGb+HMlOQtl5wgsPuftqbJhRVTSmsMxl8LZMQditzGRHM9btuZtyZV6Rrf8mccrmncMx1wM18f8NYuyNbfvnRvJWSo797iI+BuwImwselfKmsMxV4LL1txji7I1N29rnpacjfxhRaZZtiJfKmbN4Zgnw+kxtyxbcwmlcbKCPgKBQJiCi3VXEQgEwhiQ5BAIRKWBJIdAICoNJDkEAlFpIMkhEIhKA0kOgUBUGkhyCASi0kCSQyAQlUbhdVeTcHjkjChq/vGdjWtFRr8jDOHwyBlh5PudjWulq08ruWdv3dm4ZqseBUIA53Y8HB45E2StOKuxJeiciRsIPntH4dAv6X7W4ZEzO5JaAffhnKk3Qx8eOXMcivqKcC5OGAl9yoKBOxvXhFlCDo+cOcSMsSpuwc8N9jpZ/A4h7mxca8j+nuKevQX3qxaBG/iuN+Bee0s2PoY/UwTpPWISzlhycKMspEzLswDnoDfP1Tsb19JupFZ96E4Z3ri830CFdWeK+YoAY/zDlHVXg3qtC4dHzrwFZFdo1avDI2eCjea6m+z97wIW7NUcrdWgn/Qa3oXPLqzATF5wYk0OrJAdA3nH6M3z7uGRM9oPPNywqp9/HI43iQUgAW3Aw+L0xv7DI2eOwRibSBRpuoKWNuCe/XXGLCK7YdzfTzv2GUCt6R8fHjkjs/4rgcJJDgjJ9IU+e3jkzLua79HJmGEjhRBJY40B2TpdDAfkqe54yGCj7oIyYFIxec/S6/M+XKe8cTzFs1IqFEpycLPYekCPyRa0OdAlLRskdxwsHh3orF0WBdOT2FtZ1i+zAO4pG0sDu0GFFGGhHkujfsqCwkgOzH2bF7ZnoV3Sl2Mp5M9++A6moZwDHx4I1624UxakZSFedbhPbN6zAdEVMWmdTTHBlgKFOB6YBVtV3I/d2PsTLCllggOktcpOWZBNlDzPKva/DLOv6kRwlZNqm/f97hYYhqFThOVWLJOwqsUdTFw26p8m4ZSl7MeFoijvqurs7lcNEnjRXjs8cuaHHIJ6VcdjxLj/04Ca+fstuMLprHpDJslg1s2jIEhWV7/KOpPoM64y4xMQXsSKu7NxbUB24sMjZ1RipBK/o4ZzR3TPXtWQusH4p7nuL8c/m1FNSf33HWoplgJyCwdJg6LkqorEeswbMBZ3Nq7RMI6XmaaXU7jEsxKFjbU5FUs399JuugCLPcl6eSx7QOjfqFULsWrnCnQ4qIyz9J4F61zVQjM2gcEz8ari4ZWTrLmTHFggKmb7ayqzA9xQr0EwbRpTO4lwk855ytIayimRt83SOldR2E29e/CdpACyy93hoLFmey7pngWiU7lPjU6eIPFVZL7rTixtFCFXVWaK+zoWWdrtXZLtNwEewwz4a8kxQXydjcXwhZilmmY9Myt2Do+cUT1FZC2UEtLhkTOPFR6cIDj2h7H1V6lkzxGq96zqPXBV4Zx0bfaQ4fVHlWuZhuRS3yN5oAi5qjIj5iVJkiRB8JAl9cdWWbljHAvHRgUsm9C1roOdL/Tn13RNja5lFez5M3rPguJQIRzT1nrlrDQVuEpy1hcx4aFJenDeiv0vwiGLD+HZQA4zW9/KBBPeugUIrXi/ILKzcc+qWGjGSA6WPlScQM46ENKiCLmqMpuobh6Wec7uJ3jekqy4MFSBSmcF2XXckvud3ddauoBNKuEMeoIPAdnlLXmM3bMZjk8NzZjUyoWQ1DKfHFhGSRIzvr6StN5yymK0+gLI1jxCRozjzsa1Vw0/PAuau1nqhHdB4oc/sONE5d6868gaqFEUQXJFrEXEkURwvHU4lTUXmySUFDLi9M15Z+Pay4YDXM/muDPAxj3rone8kvkZiyA5FTO9aJLbzSx6B7Ph+wrnzWJdZLnBzrlOcqQbAhLEu2X1GtpKksCDjXvWtfWxW1VNQlvEmpzKwB23ta0F1idskSiN+TqV8ma5D99Zd90tCLmw9cAbj2aH9TR/TY2RnWli//LK2mH0ntWIFc2L5O5rBAvzgDseYlBZm9mvEhyaErZn/yyS9UaKGzsIkC2lVwysO/ozAFbeqxrJQ/OSq6bvWRWL/35Oe3RvZc1K7TpyJzmNGKHUSSRFgPPZDkE4ljYvGNxoOhbs3bJIDNjVkPhwU0/2nY1r5wxnXs4EuGdVJpHEexaugco9mMe40jjQl6tMcKRA76rKTL0bEgmaJKW81nBSfw7s9FANLC0iU4U2mJjEBSa4N2kiUHnw8nw4VUgnSJXEvWc1c9HlERB/vKD8dbmiqCwkNxTXYIKb5m5s0LWz4SqGjZjCcYjlSvsQnlPcjZFHTJPOlp0ANyB5QoD4dwlqchAY17gsS0qlFSC3lEtUUivuGd4P92zaVEsEliDSLj/4CQLgfqfOMll/gy2CWdbjiKF7xBoKseRSyLJDzFafhZRezDy3Q2UiVLjBZdfnccaiN7kBLAXZtTgeG1udwjB5ZyTReSiPxb6T6r1338TYwjOm0t/jFte/nUBhwcAgy/KUWyoD6S9+J/3EN81n+DwhwAMpms2zzPR5w1bsYO7XACxnm/dskKrJiAyH/qrIbOPr3y6h0B0PbCiBTSimyrml+tAoLkSbSI/Om4nvl6XgssUiO3eLsmQ1c8LpICA408R9TuFezTuzTa4ofFuXRU8aO4OpWFW661sqUimrNRdYDuyPM15HBRy3sERw16S1kwZAdFnXsVjcTVOwXAUaS0OVla1O7F2FMIgBQ2ssV0F2BsGmqunNdV32Kn09llUGMHFkwU9pNlDDuJrct0qdOU7EdMFyy29kDPV4zHwna9Jbw2NfSdnqTAV9GORXIbRAtyrSOUijzbvhVGYn7RJ3dNYFr29SKMTZkllfRhE8YIx3+5DmOl2wo8OVBJohgsX9wyNnrsJ3UvWg3oLlkTwl92vwXMn6txv2SKusOZcGDc9TqfNRHCQBpHfLZNUgepGwxU4rO7RLkGScvlVgpbHawnmSQyAQiCyoZT45BAJRHyDJIRCISgNJDoFAVBpIcggEotJAkkMgEJUGkhwCgag0kOQQCESlgSSHQCAqDSQ5BAJRaSDJIRCI6oIQ8v8ByAMZJYwOqbwAAAAASUVORK5CYII=;" vertex="1" parent="Fpg7awucpTLVWwC--4ag-2">
          <mxGeometry x="71.22" y="114.5" width="69.78" height="70" as="geometry" />
        </mxCell>
        <mxCell id="cWzvO2JFx1QMmyimes1U-3" value="Filtro de precios" style="text;strokeColor=none;fillColor=none;html=1;fontSize=24;fontStyle=1;verticalAlign=middle;align=center;" vertex="1" parent="Fpg7awucpTLVWwC--4ag-1">
          <mxGeometry x="60" y="280" width="280" height="40" as="geometry" />
        </mxCell>
        <mxCell id="cWzvO2JFx1QMmyimes1U-5" value="Readonly input here..." style="html=1;shadow=0;dashed=0;shape=mxgraph.bootstrap.rrect;rSize=5;strokeColor=#CED4DA;strokeWidth=1;fillColor=#E9ECEF;fontColor=#505050;whiteSpace=wrap;align=left;verticalAlign=middle;spacingLeft=10;fontSize=14;" vertex="1" parent="Fpg7awucpTLVWwC--4ag-1">
          <mxGeometry x="760" y="300" width="350" height="40" as="geometry" />
        </mxCell>
      </root>
    </mxGraphModel>
  </diagram>
</mxfile>
